<?xml version="1.0" encoding="utf-8"?>
<!-- Generator: Adobe Illustrator 16.0.0, SVG Export Plug-In . SVG Version: 6.00 Build 0)  -->
<!DOCTYPE svg PUBLIC "-//W3C//DTD SVG 1.1//EN" "http://www.w3.org/Graphics/SVG/1.1/DTD/svg11.dtd">
<svg version="1.1" id="Layer_1" xmlns:sketch="http://www.bohemiancoding.com/sketch/ns"
	 xmlns="http://www.w3.org/2000/svg" xmlns:xlink="http://www.w3.org/1999/xlink" x="0px" y="0px" width="157px" height="191px"
	 viewBox="0 0 157 191" enable-background="new 0 0 157 191" xml:space="preserve">
<title>bestelAV</title>
<description>Created with Sketch (http://www.bohemiancoding.com/sketch)</description>
<g id="Imported-Layers" transform="translate(1.000000, 1.000000)" sketch:type="MSLayerGroup">
	<path id="Fill-1" sketch:type="MSShapeGroup" fill="#CBA3DA" d="M151.116,4H8.671C7.383,4,6.219,4.544,5.372,5.428
		C4.524,6.312,4,7.534,4,8.887v176.226c0,1.353,0.524,2.574,1.372,3.459C6.219,189.456,7.383,190,8.671,190h142.445
		c1.288,0,2.452-0.544,3.3-1.428c0.847-0.885,1.371-2.106,1.371-3.459H156h-0.213V8.887c0-1.353-0.524-2.575-1.371-3.459
		C153.568,4.544,152.404,4,151.116,4"/>
	<path id="Fill-3" sketch:type="MSShapeGroup" fill="#FFFFFF" stroke="#933098" stroke-opacity="0.7" d="M152,180.912
		c0,2.81-2.184,5.088-4.877,5.088H4.877C2.184,186,0,183.722,0,180.912V5.088C0,2.278,2.184,0,4.877,0h142.246
		C149.816,0,152,2.278,152,5.088V180.912"/>
	<path id="Fill-5" sketch:type="MSShapeGroup" fill="#CBA3DA" d="M78.721,78h4.189c4.119,0,4.119-6,0-6H20.279h-4.19
		c-4.119,0-4.119,6,0,6H78.721z"/>
	<path id="Fill-6" sketch:type="MSShapeGroup" fill="#CBA3DA" d="M16.089,108h62.631h4.189c4.119,0,4.119-6,0-6H20.279h-4.19
		C11.97,102,11.97,108,16.089,108"/>
	<path id="Fill-7" sketch:type="MSShapeGroup" fill="#CBA3DA" d="M15.544,90h54.587h65.626h1.698c2.059,0,2.059-3,0-3H82.869H17.242
		h-1.698C13.485,87,13.485,90,15.544,90"/>
	<path id="Fill-8" sketch:type="MSShapeGroup" fill="#CBA3DA" d="M15.544,120h54.587h65.626h1.698c2.059,0,2.059-3,0-3H82.869
		H17.242h-1.698C13.485,117,13.485,120,15.544,120"/>
	<path id="Fill-9" sketch:type="MSShapeGroup" fill="#CBA3DA" d="M28.543,132h51.914c2.057,0,2.057-3,0-3H28.543
		C26.486,129,26.486,132,28.543,132"/>
	<path id="Fill-10" sketch:type="MSShapeGroup" fill="#CBA3DA" d="M28.543,145h51.914c2.057,0,2.057-3,0-3H28.543
		C26.486,142,26.486,145,28.543,145"/>
	<path id="Fill-11" sketch:type="MSShapeGroup" fill="#CBA3DA" d="M15.544,158h54.587h65.626h1.698c2.059,0,2.059-3,0-3H82.869
		H17.242h-1.698C13.485,155,13.485,158,15.544,158"/>
	<text transform="matrix(1 0 0 1 34.167 23)" fill="#CBA3DA" font-family="'Ubuntu'" font-size="14.5714">A</text>
	<text transform="matrix(1 0 0 1 27.6606 23)" fill="#CBA3DA" font-family="'Ubuntu'" font-size="14.5714"> </text>
	<text transform="matrix(1 0 0 1 44.4907 23)" fill="#CBA3DA" font-family="'Ubuntu'" font-size="14.5714" letter-spacing="-1">L</text>
	<text transform="matrix(1 0 0 1 50.4336 23)" fill="#CBA3DA" font-family="'Ubuntu'" font-size="14.5714"> </text>
	<text transform="matrix(1 0 0 1 50.1455 23)" fill="#CBA3DA" font-family="'Ubuntu'" font-size="14.5714">GEMENE</text>
	<text transform="matrix(1 0 0 1 18 42)" fill="#CBA3DA" font-family="'Ubuntu'" font-size="14.5714">V</text>
	<text transform="matrix(1 0 0 1 26.9468 42)" fill="#CBA3DA" font-family="'Ubuntu'" font-size="14.5714"> </text>
	<text transform="matrix(1 0 0 1 26.6992 42)" fill="#CBA3DA" font-family="'Ubuntu'" font-size="14.5714">OOR</text>
	<text transform="matrix(1 0 0 1 56.7017 42)" fill="#CBA3DA" font-family="'Ubuntu'" font-size="14.5714"> </text>
	<text transform="matrix(1 0 0 1 58.5376 42)" fill="#CBA3DA" font-family="'Ubuntu'" font-size="14.5714">W</text>
	<text transform="matrix(1 0 0 1 71.4624 42)" fill="#CBA3DA" font-family="'Ubuntu'" font-size="14.5714"> </text>
	<text transform="matrix(1 0 0 1 71.2002 42)" fill="#CBA3DA" font-family="'Ubuntu'" font-size="14.5714" letter-spacing="1">A</text>
	<text transform="matrix(1 0 0 1 82.0137 42)" fill="#CBA3DA" font-family="'Ubuntu'" font-size="14.5714"> </text>
	<text transform="matrix(1 0 0 1 82.4941 42)" fill="#CBA3DA" font-family="'Ubuntu'" font-size="14.5714">ARDEN</text>
	<path id="Fill-12" sketch:type="MSShapeGroup" fill="#CBA3DA" d="M20,131c0,1.104-0.896,2-2,2s-2-0.896-2-2s0.896-2,2-2
		S20,129.896,20,131"/>
	<path id="Fill-13" sketch:type="MSShapeGroup" fill="#CBA3DA" d="M20,144c0,1.104-0.896,2-2,2s-2-0.896-2-2s0.896-2,2-2
		S20,142.896,20,144"/>
</g>
</svg>
