<?xml version="1.0" encoding="utf-8"?>
<!-- Generator: Adobe Illustrator 16.0.0, SVG Export Plug-In . SVG Version: 6.00 Build 0)  -->
<!DOCTYPE svg PUBLIC "-//W3C//DTD SVG 1.1//EN" "http://www.w3.org/Graphics/SVG/1.1/DTD/svg11.dtd">
<svg version="1.1" id="Layer_1" xmlns:sketch="http://www.bohemiancoding.com/sketch/ns"
	 xmlns="http://www.w3.org/2000/svg" xmlns:xlink="http://www.w3.org/1999/xlink" x="0px" y="0px" width="157px" height="191px"
	 viewBox="0 0 157 191" enable-background="new 0 0 157 191" xml:space="preserve">
<title>BestelContract</title>
<description>Created with Sketch (http://www.bohemiancoding.com/sketch)</description>
<g id="Group" transform="translate(1.000000, 1.000000)" sketch:type="MSLayerGroup">
	<path id="Fill-1" sketch:type="MSShapeGroup" fill="#CBA3DA" d="M151.116,4H8.671c-1.288,0-2.453,0.544-3.3,1.428
		C4.524,6.312,4,7.534,4,8.887v176.226c0,1.353,0.524,2.574,1.371,3.459c0.847,0.884,2.012,1.428,3.3,1.428h142.445
		c1.288,0,2.452-0.544,3.3-1.428c0.846-0.885,1.371-2.106,1.371-3.459H156h-0.213V8.887c0-1.353-0.525-2.575-1.371-3.459
		C153.568,4.544,152.404,4,151.116,4"/>
	<path id="Fill-3" sketch:type="MSShapeGroup" fill="#FFFFFF" stroke="#933098" stroke-opacity="0.7" d="M152,180.912
		c0,2.81-2.184,5.088-4.877,5.088H4.877C2.183,186,0,183.722,0,180.912V5.088C0,2.278,2.183,0,4.877,0h142.246
		C149.816,0,152,2.278,152,5.088V180.912"/>
	<path id="Fill-5" sketch:type="MSShapeGroup" fill="#CBA3DA" d="M131.109,28h-1.892c-0.001,2.827-1.141,5.37-2.993,7.225
		c-1.855,1.852-4.396,2.992-7.225,2.993c-2.828-0.001-5.37-1.141-7.225-2.993c-1.853-1.855-2.992-4.398-2.993-7.225
		c0.001-2.828,1.141-5.37,2.993-7.225c1.855-1.852,4.396-2.992,7.225-2.993c2.828,0.001,5.369,1.141,7.225,2.993
		c1.853,1.855,2.992,4.397,2.993,7.225H133c0.001-3.86-1.57-7.372-4.101-9.899C126.372,15.57,122.86,13.999,119,14
		c-3.86-0.001-7.372,1.57-9.9,4.101c-2.529,2.527-4.102,6.04-4.1,9.899c-0.002,3.86,1.57,7.372,4.1,9.899
		c2.528,2.53,6.04,4.102,9.9,4.101c3.86,0.001,7.372-1.57,9.899-4.101c2.53-2.528,4.102-6.04,4.101-9.899H131.109"/>
	<path id="Fill-6" sketch:type="MSShapeGroup" fill="#CBA3DA" d="M17.091,85h55.857h60.668h0.292c4.121,0,4.121-6,0-6H78.051H17.382
		h-0.291C12.97,79,12.97,85,17.091,85"/>
	<path id="Fill-7" sketch:type="MSShapeGroup" fill="#CBA3DA" d="M17.091,99h55.857h60.668h0.292c4.121,0,4.121-6,0-6H78.051H17.382
		h-0.291C12.97,93,12.97,99,17.091,99"/>
	<path id="Fill-8" sketch:type="MSShapeGroup" fill="#CBA3DA" d="M17.081,112h63.456H95.92c4.107,0,4.107-6,0-6H32.464H17.081
		C12.973,106,12.973,112,17.081,112"/>
	<path id="Fill-9" sketch:type="MSShapeGroup" fill="#CBA3DA" d="M16.528,174h44.943c2.038,0,2.038-3,0-3H16.528
		C14.491,171,14.491,174,16.528,174"/>
	<path id="Fill-10" sketch:type="MSShapeGroup" fill="#CBA3DA" d="M87.528,174h44.943c2.038,0,2.038-3,0-3H87.528
		C85.49,171,85.49,174,87.528,174"/>
	<path id="Fill-11" sketch:type="MSShapeGroup" fill="#CBA3DA" d="M40,150.007c-8,11.011-2.479,11.503-0.496,11.011
		c2.75-0.685,3.812-4.385,4.496-3.018c1,2,0.903,2.436,1.653,2.531c5.823,0.736,11.125-5.834,13.241-10.524
		c0.563-1.249-1.287-2.339-1.855-1.081C55.738,151.811,50,159,46.975,159c-3.025,0-0.07-3.137,0-3.539
		c0.176-1.009-0.979-1.849-1.795-1.041c-1.609,1.593-3.337,3.101-5.347,4.17c-0.563,0.299-2.208,0.988-2.24-0.129
		c-0.024-0.865,0.404-1.797,0.713-2.585c1.579-4.03,4.29-7.478,6.27-11.295c0.577-1.112-0.76-2.079-1.687-1.298
		c-7.482,6.307-14.306,13.383-20.619,20.845c-0.887,1.049,0.625,2.571,1.519,1.515C30.101,158.18,43.592,145.062,40,150.007z"/>
	<path id="Fill-12" sketch:type="MSShapeGroup" fill="#CBA3DA" d="M93.047,154.427c0.891-2.618,2.602-5.436,5.094-6.884
		c6.568-3.816,5.982,12.093,8.373,14.408c2.213,2.144,3.666-2.969,5.132-3.495c0.521-0.187,2.524,3.449,2.953,3.976
		c1.332,1.641,3.22,1.941,5.138,1.148c1.258-0.521,2.533-3.62,3.828-2.898c1.547,0.86,2.505,1.667,4.406,1.487
		c1.365-0.129,1.379-2.21,0-2.079c-2.084,0.196-3.09-1.892-5.01-1.804c-1.84,0.085-2.416,1.3-3.294,2.68
		c-1.985,3.12-4.294-1.127-5.202-2.548c-1.012-1.58-2.672-2.803-4.454-1.4c-0.52,0.41-0.917,0.905-1.317,1.422
		c-0.352,0.453-0.452,2.021-0.953,1.377c-0.725-1.858-0.897-3.926-1.253-5.869c-0.558-3.047-1.575-7.434-4.999-8.658
		c-2.658-0.951-5.141,0.599-6.898,2.445c-3.027,3.183-7.419,12.149-2.089,15.264c1.188,0.694,2.268-1.104,1.083-1.797
		C91.357,159.9,92.409,156.303,93.047,154.427z"/>
	<text transform="matrix(1 0 0 1 16 31)" fill="#CBA3DA" font-family="'Helvetica'" font-size="14.7273">CONTRACT</text>
</g>
</svg>
