<?xml version="1.0" encoding="utf-8"?>
<!-- Generator: Adobe Illustrator 16.0.0, SVG Export Plug-In . SVG Version: 6.00 Build 0)  -->
<!DOCTYPE svg PUBLIC "-//W3C//DTD SVG 1.1//EN" "http://www.w3.org/Graphics/SVG/1.1/DTD/svg11.dtd">
<svg version="1.1" xmlns="http://www.w3.org/2000/svg" xmlns:xlink="http://www.w3.org/1999/xlink" x="0px" y="0px" width="136px"
	 height="168px" viewBox="0 0 136 168" enable-background="new 0 0 136 168" xml:space="preserve">
<g id="Layer_2">
</g>
<g id="Layer_1" xmlns:sketch="http://www.bohemiancoding.com/sketch/ns">
	<title>checklist</title>
	<description>Created with Sketch (http://www.bohemiancoding.com/sketch)</description>
	<path opacity="0.7" fill="#43A6C8" d="M27.861,166.99c-1.607,0-3.164-0.52-4.471-1.507c-1.592-1.2-2.62-2.952-2.896-4.927
		l2.975-0.417c0.165,1.184,0.78,2.229,1.731,2.945c0.949,0.718,2.114,1.019,3.294,0.856l99.682-14.021
		c2.432-0.343,4.132-2.604,3.789-5.042L112.763,7.705c-0.165-1.181-0.778-2.227-1.731-2.944c-0.95-0.716-2.115-1.019-3.292-0.855
		l-0.418-2.975c1.97-0.275,3.931,0.231,5.519,1.431c1.594,1.202,2.622,2.953,2.897,4.928l19.202,137.171
		c0.571,4.077-2.273,7.861-6.344,8.436l-99.683,14.02C28.561,166.966,28.209,166.99,27.861,166.99z"/>
	<path fill="#FFFFFF" d="M132.14,143.641L112.705,4.781c-0.46-3.303-3.508-5.604-6.792-5.141L5.179,13.856
		c-3.291,0.464-5.582,3.523-5.12,6.823l19.434,138.859c0.463,3.305,3.512,5.606,6.794,5.143l100.732-14.218
		C130.311,149.999,132.602,146.941,132.14,143.641z M15.935,46.65l2.511-3.186l3.214,2.587
		c5.517-14.935,12.943-15.458,12.943-15.458l1.186,3.188c-7.257,2.493-12.385,16.428-12.385,16.428L15.935,46.65z M19.713,73.649
		l2.511-3.186l3.215,2.587c5.516-14.935,12.944-15.459,12.944-15.459l1.186,3.189c-7.257,2.492-12.384,16.428-12.384,16.428
		L19.713,73.649z M31.092,105.141l-7.47-3.562l2.512-3.183l3.213,2.584c5.517-14.934,12.943-15.457,12.943-15.457l1.187,3.188
		C36.22,91.202,31.092,105.141,31.092,105.141z M48.236,41.008l1.732-0.244l52.478-7.405c2.641-0.373,3.16,3.352,0.522,3.723
		l-1.735,0.245l-52.476,7.406C46.117,45.105,45.597,41.381,48.236,41.008z M52.143,68.939l1.735-0.245l52.477-7.407
		c2.641-0.372,3.161,3.352,0.521,3.725l-1.734,0.246l-52.478,7.405C50.026,73.036,49.504,69.312,52.143,68.939z M56.053,96.869
		l1.734-0.242l52.48-7.408c2.636-0.373,3.157,3.351,0.518,3.725l-1.734,0.243l-52.478,7.407
		C53.935,100.966,53.414,97.242,56.053,96.869z M114.563,119.942l-1.733,0.244l-52.477,7.409c-2.64,0.368-3.161-3.354-0.521-3.727
		l1.734-0.247l52.476-7.404C116.683,115.846,117.203,119.568,114.563,119.942z"/>
</g>
</svg>
