<?xml version="1.0" encoding="UTF-8" standalone="no"?>
<svg width="136px" height="168px" viewBox="0 0 136 168" version="1.1" xmlns="http://www.w3.org/2000/svg" xmlns:xlink="http://www.w3.org/1999/xlink" xmlns:sketch="http://www.bohemiancoding.com/sketch/ns">
    <title>checklist</title>
    <description>Created with Sketch (http://www.bohemiancoding.com/sketch)</description>
    <defs></defs>
    <g id="Page-1" stroke="none" stroke-width="1" fill="none" fill-rule="evenodd" sketch:type="MSPage">
        <g id="website" sketch:type="MSArtboardGroup" transform="translate(-152.000000, -893.000000)">
            <g id="in-3-stappen" sketch:type="MSLayerGroup" transform="translate(134.000000, 760.000000)">
                <g id="Rectangle-2-copy-+-checklist" transform="translate(18.000000, 133.000000)" sketch:type="MSShapeGroup">
                    <g>
                        <path d="M22.7361725,162.378989 C23.1978477,165.663979 26.2413715,167.951849 29.5198433,167.49109 L130.095262,153.356137 C133.380104,152.894482 135.668243,149.853735 135.207059,146.572237 L115.803263,8.50705581 C115.341588,5.222066 112.298064,2.93419591 109.019592,3.39495508" id="Rectangle-2-copy" stroke-opacity="0.7" stroke="#43A6C8" stroke-width="3"></path>
                        <g id="checklist" transform="translate(66.679571, 82.443022) rotate(-8.000000) translate(-66.679571, -82.443022) translate(9.679571, 6.943022)" fill="#FFFFFF">
                            <path d="M6.00618566,-4.12114787e-13 C2.68906092,-4.12114787e-13 -1.04360964e-13,2.69270784 -1.04360964e-13,6.00645461 L-1.04360964e-13,145.428481 C-1.04360964e-13,148.745755 2.69549441,151.434936 6.00618566,151.434936 L107.570016,151.434936 C110.887141,151.434936 113.576202,148.742228 113.576202,145.428481 L113.576202,6.00645461 C113.576202,2.68918133 110.880708,-4.12114787e-13 107.570016,-4.12114787e-13 L6.00618566,-4.12114787e-13 Z M44.8198381,36.4565586 L97.7298414,36.4565586 L99.4777955,36.4565586 C102.139161,36.4565586 102.139161,32.7174244 99.4777955,32.7174244 L46.5677922,32.7174244 L44.8198381,32.7174244 C42.1584724,32.7174244 42.1584724,36.4565586 44.8198381,36.4565586 Z M44.8198381,64.5000653 L97.7298414,64.5000653 L99.4777955,64.5000653 C102.139161,64.5000653 102.139161,60.7609311 99.4777955,60.7609311 L46.5677922,60.7609311 L44.8198381,60.7609311 C42.1584724,60.7609311 42.1584724,64.5000653 44.8198381,64.5000653 Z M44.8198381,92.5435719 L97.7298414,92.5435719 L99.4777955,92.5435719 C102.139161,92.5435719 102.139161,88.8044377 99.4777955,88.8044377 L46.5677922,88.8044377 L44.8198381,88.8044377 C42.1584724,88.8044377 42.1584724,92.5435719 44.8198381,92.5435719 Z M44.8198381,119.652295 L97.7298414,119.652295 L99.4777955,119.652295 C102.139161,119.652295 102.139161,115.913161 99.4777955,115.913161 L46.5677922,115.913161 L44.8198381,115.913161 C42.1584724,115.913161 42.1584724,119.652295 44.8198381,119.652295 Z M15.0269353,30.9956101 L12.1023822,33.783271 L18.9959717,38.3261258 C18.9959717,38.3261258 25.9940096,25.3170417 33.5142891,23.8715879 L32.7831508,20.5676935 C32.7831508,20.5676935 25.3673196,20.05146 17.8470401,33.9897644 L15.0269353,30.9956101 Z M15.0269353,58.1043332 L12.1023822,60.8919941 L18.9959717,65.4348488 C18.9959717,65.4348488 25.9940096,52.4257648 33.5142891,50.980311 L32.7831508,47.6764166 C32.7831508,47.6764166 25.3673196,47.1601831 17.8470401,61.0984875 L15.0269353,58.1043332 Z M15.0269353,86.1478399 L12.1023822,88.9355007 L18.9959717,93.4783555 C18.9959717,93.4783555 25.9940096,80.4692714 33.5142891,79.0238177 L32.7831508,75.7199233 C32.7831508,75.7199233 25.3673196,75.2036898 17.8470401,89.1419941 L15.0269353,86.1478399 Z" id="Rectangle-2"></path>
                        </g>
                    </g>
                </g>
            </g>
        </g>
    </g>
</svg>