<?xml version="1.0" encoding="utf-8"?>
<!-- Generator: Adobe Illustrator 16.0.0, SVG Export Plug-In . SVG Version: 6.00 Build 0)  -->
<!DOCTYPE svg PUBLIC "-//W3C//DTD SVG 1.1//EN" "http://www.w3.org/Graphics/SVG/1.1/DTD/svg11.dtd">
<svg version="1.1" id="Layer_1" xmlns:sketch="http://www.bohemiancoding.com/sketch/ns"
	 xmlns="http://www.w3.org/2000/svg" xmlns:xlink="http://www.w3.org/1999/xlink" x="0px" y="0px" width="236px" height="290px"
	 viewBox="0 0 236 290" enable-background="new 0 0 236 290" xml:space="preserve">
<title>contract</title>
<description>Created with Sketch (http://www.bohemiancoding.com/sketch)</description>
<g id="Page-1" sketch:type="MSPage">
	<g id="website" transform="translate(-211.000000, -2142.000000)" sketch:type="MSArtboardGroup">
		<g id="Path-copy-_x2B_-Fill-1" transform="translate(211.000000, 2142.000000)" sketch:type="MSLayerGroup">
			<g sketch:type="MSShapeGroup">
				<path id="Path-copy" fill="#933098" fill-opacity="0.7" d="M226.042,0.997c5.38,0,9.958,4.824,9.958,10.962v267.078
					c0,6.139-4.578,10.963-9.958,10.963H10.954c-5.379,0-9.958-4.824-9.958-10.963h2.987c-0.037,4.536,3.254,8.004,6.971,7.973
					h215.088c3.717,0.031,7.008-3.437,6.971-7.973V11.959c0.037-4.536-3.254-8.003-6.971-7.973V0.997z"/>
				<path id="Fill-1" fill="#FFFFFF" d="M233.008,7.973c0-4.457-3.361-7.973-7.966-7.973H7.966C3.362,0,0,3.516,0,7.973v271.064
					c0,4.458,3.362,7.973,7.966,7.973h217.076c4.604,0,7.966-3.515,7.966-7.973V7.973L233.008,7.973z M180.236,15.945
					c16.146,0,28.877,12.741,28.877,27.904c0,16.159-12.73,28.9-28.877,28.9c-15.15,0-27.882-12.741-27.882-28.9
					C152.354,28.686,165.086,15.945,180.236,15.945L180.236,15.945z M25.89,35.876C25.633,35.876,25.874,35.876,25.89,35.876h90.616
					c13.111,0,13.111,19.931,0,19.931l0,0H25.89C12.779,55.808,12.779,35.876,25.89,35.876L25.89,35.876z M95.595,270.068h-70.7
					c-2.784,0-2.784-4.982,0-4.982h70.7C98.379,265.086,98.379,270.068,95.595,270.068L95.595,270.068z M60.743,246.151
					c3.02-1.897,5.624-4.185,7.966-6.976c1.311-0.848,3.053,0.426,2.987,1.992c-0.455,1.439-0.417,2.947,0,3.986
					c6.439,0,12.435-8.279,14.937-13.951c0.888-1.891,3.677-0.237,2.987,1.992c-3.348,6.777-11.339,16.741-19.916,15.945
					c-1.331-0.466-1.924-1.242-1.992-1.992c0.329-1.066,0.369-1.748,0-1.994c-1.953,1.693-4.624,3.688-7.966,3.986
					c-2.499,1.164-6.039-0.229-5.975-3.986c0.93-4.564,3.234-8.855,5.975-12.955c-8.359,7.591-15.999,15.812-22.903,23.918
					c-1.64,2.057-3.918-0.252-2.987-1.994c9.921-11.164,20.206-21.895,31.865-31.889c1.014-0.756,3.028,0.709,1.991,1.992
					c-2.815,6.195-6.901,11.422-8.962,17.938c-0.784,0.79-1.43,2.204-0.996,3.986C57.405,247.375,59.885,246.33,60.743,246.151
					L60.743,246.151z M24.895,174.398c-6.555,0-6.555-9.965,0-9.965h22.903h97.586c6.555,0,6.555,9.965,0,9.965H122.48H24.895
					L24.895,174.398z M143.393,250.138c1.33,0.671-0.322,3.501-1.992,1.993c-8.316-4.484-1.59-18.594,2.988-23.918
					c2.752-2.589,6.557-5.027,10.953-3.986c4.92,2.381,6.479,9.284,6.971,13.952c0.908,3.185,1.174,6.438,1.991,8.97
					c0.302,0.404,0.308,0.414,0,0c0.792-0.307,1.225-1.076,1.991-1.994c0.374-0.593,0.982-1.373,1.992-1.992
					c2.518-2.232,5.061-0.309,6.971,1.992c1.031,2.422,4.566,9.105,7.966,3.986c0.987-1.961,1.87-3.875,4.979-3.986
					c2.65-0.16,4.193,3.125,6.97,2.99c2.526-0.379,2.507,2.896,0,2.989c-2.498,0.392-3.966-0.878-5.975-1.993
					c-2.345-1.373-4.298,3.503-5.975,3.986c-3.188,1.584-6.081,1.109-7.966-0.996c-0.812-1.304-3.882-7.023-4.979-6.977
					c-1.946,1.075-4.173,9.119-7.966,5.979c-3.259-3.878-2.361-28.911-11.949-22.921c-4.293,2.295-6.914,6.729-7.967,10.963
					C141.108,242.012,139.497,247.673,143.393,250.138L143.393,250.138z M204.135,270.068h-70.7c-2.784,0-2.784-4.982,0-4.982h70.7
					C206.919,265.086,206.919,270.068,204.135,270.068L204.135,270.068z M203.139,154.467
					C203.24,154.467,203.091,154.467,203.139,154.467h-92.607H24.895c-6.556,0-6.556-9.965,0-9.965c-0.101,0,0.048,0,0,0h92.607
					h85.637C209.694,144.502,209.694,154.467,203.139,154.467L203.139,154.467z M203.139,132.543
					C203.24,132.543,203.091,132.543,203.139,132.543h-92.607H24.895c-6.556,0-6.556-9.966,0-9.966c-0.101,0,0.048,0,0,0h92.607
					h85.637C209.694,122.577,209.694,132.543,203.139,132.543z M180.236,63.78c10.656,0,18.92-8.494,18.92-18.935
					c0-10.44-8.264-18.935-18.92-18.935c-9.66,0-17.924,8.494-17.924,18.935C162.312,55.286,170.576,63.78,180.236,63.78z"/>
			</g>
		</g>
	</g>
</g>
</svg>
