<?xml version="1.0" encoding="UTF-8" standalone="no"?>
<svg width="252px" height="294px" viewBox="0 0 252 294" version="1.1" xmlns="http://www.w3.org/2000/svg" xmlns:xlink="http://www.w3.org/1999/xlink" xmlns:sketch="http://www.bohemiancoding.com/sketch/ns">
    <title>headerContract</title>
    <description>Created with Sketch (http://www.bohemiancoding.com/sketch)</description>
    <defs>
        <path id="path-1" d="M52.9516101,299.593864 L22.6915063,50.5967857 C22.2079045,46.6174392 24.8841472,43.0104494 28.6697393,42.540832 L228.588266,17.7401615 C232.373858,17.2705441 235.834881,20.1161823 236.318483,24.0955287 L266.578587,273.092607 C267.062189,277.071954 264.385349,280.679018 260.599757,281.148635 L60.6812304,305.949305 C56.8956383,306.418923 53.4352119,303.573211 52.9516101,299.593864 Z"></path>
    </defs>
    <g id="Page-1" stroke="none" stroke-width="1" fill="none" fill-rule="evenodd" sketch:type="MSPage">
        <g id="website" sketch:type="MSArtboardGroup" transform="translate(-139.000000, -282.000000)">
            <g id="header-visuals" sketch:type="MSLayerGroup" transform="translate(122.000000, 240.000000)">
                <g id="contract" transform="translate(0.000000, 28.000000)">
                    <g id="Path-copy">
                        <use stroke="none" sketch:type="MSShapeGroup" xlink:href="#path-1"></use>
                        <use stroke="none" xlink:href="#path-1"></use>
                        <use stroke="#43A6C9" stroke-width="2" xlink:href="#path-1"></use>
                    </g>
                    <g transform="translate(142.000000, 160.500000) rotate(4.000000) translate(-142.000000, -160.500000) translate(10.000000, 9.000000)" id="Fill-1" fill="#FFFFFF" sketch:type="MSShapeGroup">
                        <path d="M258.346775,263.633425 L56.7917962,302.874219 C52.9752168,303.61727 49.2553897,300.991969 48.4828239,297.011125 L0.14156095,47.9203055 C-0.631004868,43.939461 1.83606949,40.1096305 5.6526489,39.3665796 L207.207627,0.125784767 C211.024207,-0.617266141 214.744636,2.00791762 215.517201,5.98876215 L263.858464,255.079582 C264.63103,259.060426 262.163354,262.890374 258.346775,263.633425 Z M116.112075,69.4152375 L116.781529,69.285215 C128.491526,67.0108796 124.972729,48.9230095 113.262732,51.1973448 L28.8885303,67.5846449 L28.218471,67.714785 C16.5084742,69.9891204 20.0272714,88.0769905 31.7372683,85.8026552 L116.112075,69.4152375 Z M177.184276,70.589314 C165.258073,72.9141958 153.716865,65.1327059 151.405813,53.2092066 C149.094762,41.2857073 156.889056,29.7355959 168.81526,27.4107141 C180.741463,25.0858323 192.283154,32.8666066 194.594206,44.7901059 C196.905257,56.7136053 189.11048,68.2644322 177.184276,70.589314 Z M124.270092,140.666285 L209.997963,124.117966 L210.410385,124.038354 C216.233669,122.914268 214.48362,113.973441 208.660335,115.097528 L129.729908,130.333715 L44.0020375,146.882034 L43.5896151,146.961646 C37.7663309,148.085732 39.5163804,157.026559 45.3396646,155.902472 L124.270092,140.666285 Z M128.270092,160.666285 L213.997963,144.117966 L214.410385,144.038354 C220.233669,142.914268 218.48362,133.973441 212.660335,135.097528 L133.729908,150.333715 L48.0020375,166.882034 L47.5896151,166.961646 C41.7663309,168.085732 43.5163804,177.026559 49.3396646,175.902472 L128.270092,160.666285 Z M142.537913,177.372132 L164.401929,173.122413 C170.238931,171.987872 168.484759,162.963894 162.647757,164.098435 L72.4614834,181.627985 L50.5980713,185.877587 C44.7610689,187.012128 46.5152411,196.036106 52.3522435,194.901565 L142.537913,177.372132 Z M134.197012,269.528508 C137.121925,268.965304 136.242912,264.485661 133.317999,265.048865 L68.8029879,277.471492 C65.8780751,278.034696 66.7570881,282.514339 69.6820008,281.951135 L134.197012,269.528508 Z M235.197008,250.528534 C238.121927,249.965327 237.242912,245.485658 234.317993,246.048865 L169.803436,258.471447 C166.877912,259.03477 167.756927,263.514439 170.682451,262.951116 L235.197008,250.528534 Z M101.113786,233.344247 L98.3814755,231.98088 C96.2370879,239.249698 91.6106418,246.849355 92.1751388,254.632519 C92.4252926,258.07074 95.9859273,258.720437 98.6454887,257.485358 C102.33304,255.771572 105.170846,251.620673 107.391268,248.373103 C106.452996,248.04833 105.51484,247.724159 104.576451,247.398783 C104.617078,249.467951 105.247034,251.437806 105.346237,253.498112 C105.398008,254.579708 106.093326,255.192178 107.176782,255.120746 C115.583046,254.564997 121.255351,243.879358 122.9525,236.707286 C123.404117,234.79821 120.498082,233.771598 120.042875,235.694493 C118.582937,241.865762 113.891485,251.62756 106.590332,252.110176 C107.20011,252.651133 107.809771,253.191487 108.420272,253.732928 C108.322124,251.678042 107.690639,249.680988 107.65109,247.633482 C107.622196,246.166282 105.764113,245.30195 104.836272,246.659162 C103.005108,249.338212 100.983664,251.930446 98.4449356,253.982529 C97.7334037,254.557321 95.6039139,255.975772 95.2531136,254.413545 C94.9824095,253.204451 95.3305297,251.776599 95.5501445,250.585502 C96.6714417,244.48804 99.5475093,238.901905 101.2911,232.993673 C101.798662,231.271828 99.6510398,230.278697 98.5587899,231.630306 C89.7431778,242.541343 82.0653853,254.353314 75.2136676,266.568683 C74.2508975,268.285093 76.7978322,270.01247 77.7686636,268.282624 C84.620264,256.066652 92.2981738,244.255284 101.113786,233.344247 Z M172.480685,233.469181 C172.996844,229.476982 174.61238,224.976541 177.714159,222.226327 C185.887028,214.979616 189.544326,237.935272 193.562568,240.606826 C197.281823,243.079117 197.888263,235.360924 199.804432,234.209455 C200.485345,233.80082 204.331644,238.467692 205.083023,239.10707 C207.420084,241.095871 210.163284,241.016503 212.640137,239.361969 C214.265866,238.274984 215.187671,233.489072 217.214709,234.172161 C219.634765,234.986949 221.211606,235.882766 223.838811,235.111184 C225.725502,234.556783 225.157378,231.57101 223.252898,232.130685 C220.374212,232.976586 218.367998,230.257319 215.69094,230.903006 C213.123493,231.522057 212.65448,233.420436 211.806888,235.634079 C209.889756,240.643463 205.443543,235.181903 203.763049,233.391684 C201.894843,231.399993 199.212586,230.097399 197.097758,232.591108 C196.481234,233.317711 196.061548,234.135774 195.643253,234.983264 C195.275227,235.728916 195.012829,236.526646 194.696855,237.294463 C194.562485,237.559077 194.426906,237.823924 194.291931,238.088655 C195.442541,238.294354 195.5755,238.00341 194.689366,237.214863 C193.145744,234.748164 192.319038,231.832506 191.271085,229.144959 C189.62707,224.928915 186.958186,218.918507 181.791748,218.090287 C177.781358,217.447543 174.722081,220.340533 172.768452,223.46271 C169.400885,228.841809 165.743354,242.878587 174.125794,245.898466 C175.995243,246.571633 177.007608,243.70213 175.145513,243.03126 C171.642875,241.769426 172.110562,236.330307 172.480685,233.469181 Z M186.740211,46.3291735 C185.265154,38.7406641 177.917683,33.7847321 170.329174,35.2597889 C162.740664,36.7348457 157.784732,44.0823171 159.259789,51.6708265 C160.734846,59.2593359 168.082317,64.2152679 175.670826,62.7402111 C183.259336,61.2651543 188.215268,53.9176829 186.740211,46.3291735 Z"></path>
                    </g>
                </g>
            </g>
        </g>
    </g>
</svg>