<?xml version="1.0" encoding="utf-8"?>
<!-- Generator: Adobe Illustrator 16.0.0, SVG Export Plug-In . SVG Version: 6.00 Build 0)  -->
<!DOCTYPE svg PUBLIC "-//W3C//DTD SVG 1.1//EN" "http://www.w3.org/Graphics/SVG/1.1/DTD/svg11.dtd">
<svg version="1.1" id="Layer_1" xmlns:sketch="http://www.bohemiancoding.com/sketch/ns"
	 xmlns="http://www.w3.org/2000/svg" xmlns:xlink="http://www.w3.org/1999/xlink" x="0px" y="0px" width="252px" height="294px"
	 viewBox="0 0 252 294" enable-background="new 0 0 252 294" xml:space="preserve">
<title>headerContract</title>
<description>Created with Sketch (http://www.bohemiancoding.com/sketch)</description>
<path id="path-1" fill="none" d="M35.952,285.594L5.691,36.597c-0.483-3.979,2.193-7.586,5.979-8.056L211.588,3.74
	c3.786-0.47,7.247,2.376,7.73,6.355l30.26,248.997c0.484,3.979-2.193,7.587-5.979,8.056L43.681,291.949
	C39.896,292.419,36.435,289.573,35.952,285.594z"/>
<path id="path-1_1_" fill="none" d="M35.952,285.594L5.691,36.597c-0.483-3.979,2.193-7.586,5.979-8.056L211.588,3.74
	c3.786-0.47,7.247,2.376,7.73,6.355l30.26,248.997c0.484,3.979-2.193,7.587-5.979,8.056L43.681,291.949
	C39.896,292.419,36.435,289.573,35.952,285.594z"/>
<path id="path-1_2_" fill="none" stroke="#43A6C9" stroke-width="2" d="M35.952,285.594L5.691,36.597
	c-0.483-3.979,2.193-7.586,5.979-8.056L211.588,3.74c3.786-0.47,7.247,2.376,7.73,6.355l30.26,248.997
	c0.484,3.979-2.193,7.587-5.979,8.056L43.681,291.949C39.896,292.419,36.435,289.573,35.952,285.594z"/>
<g id="XMLID_3_">
	<g id="XMLID_1_">
		<g>
			<path fill="#FFFFFF" d="M151.21,49.8c1.48,12.06,12.45,20.63,24.51,19.14c12.061-1.49,20.641-12.47,19.16-24.52
				c-1.47-12.06-12.439-20.63-24.5-19.14C158.32,26.77,149.74,37.75,151.21,49.8z M93.01,248.14c8.42,0.03,14.83-10.239,17.02-17.27
				c0.58-1.87-2.24-3.101-2.83-1.21c-1.75,5.59-6.46,14.05-12.94,15.27c-0.12-1.41-0.33-2.819-0.26-4.229
				c0.08-1.46-1.72-2.46-2.74-1.17c-0.16,0.2-0.31,0.399-0.47,0.59c-1.88,2.34-3.95,4.55-6.41,6.27c-0.75,0.53-2.98,1.79-3.22,0.21
				c-0.18-1.22,0.26-2.63,0.57-3.8c1.54-6,4.8-11.37,6.95-17.149c0.63-1.681-1.45-2.82-2.63-1.551
				c-9.55,10.271-18.04,21.521-25.72,33.23c-1.08,1.64,1.34,3.54,2.42,1.88l17.94-23.09c-5.63,15,0.9,14.83,3.64,13.78
				c2.62-1,4.91-3.181,6.88-5.45c0.06,0.649,0.1,1.29,0.09,1.939C91.27,247.47,91.92,248.13,93.01,248.14z M165.67,220.24
				c7.48-5.75,10.03,10.72,13.04,17.229c0.48,1.03,0.97,1.811,1.49,2.21c3.53,2.73,4.68-4.93,6.67-5.939
				c0.71-0.36,4.22,4.56,4.92,5.25c2.2,2.149,4.94,2.26,7.52,0.779c1.7-0.97,2.96-5.68,4.931-4.85c2.359,0.98,3.87,1.98,6.54,1.39
				c1.92-0.42,1.569-3.439-0.37-3.01c-2.93,0.641-4.75-2.21-7.46-1.75c-2.61,0.44-3.21,2.3-4.21,4.45c-2.26,4.86-6.311-0.9-7.86-2.8
				c-1.729-2.12-4.31-3.61-6.6-1.271c-0.66,0.69-1.141,1.471-1.62,2.29c-0.4,0.7-0.72,1.46-1.07,2.19
				c-0.01-0.01-0.02-0.021-0.03-0.03c-1.369-2.57-1.989-5.54-2.85-8.29c-1.34-4.32-3.59-10.5-8.68-11.689
				c-3.96-0.92-7.21,1.75-9.38,4.729c-3.74,5.13-8.36,18.88-0.21,22.48c1.819,0.8,3.029-1.99,1.22-2.79
				c-3.41-1.511-2.561-6.9-2-9.73C160.46,227.15,162.38,222.77,165.67,220.24z M249.31,259.03c0.49,4.02-2.229,7.67-6.09,8.14
				l-203.8,25.09c-3.86,0.471-7.39-2.399-7.88-6.43L0.69,33.97c-0.49-4.02,2.23-7.67,6.09-8.14l203.8-25.09
				c3.86-0.47,7.39,2.4,7.88,6.43L249.31,259.03z M221.04,252.49c2.95-0.36,2.39-4.891-0.57-4.53l-65.22,7.89
				c-2.96,0.36-2.39,4.891,0.56,4.53L221.04,252.49z M207.73,144.81c5.89-0.72,4.77-9.76-1.12-9.05l-79.801,9.7l-86.68,10.53
				l-0.41,0.05c-5.89,0.71-4.77,9.75,1.12,9.04l79.8-9.7l86.669-10.52L207.73,144.81z M205.13,124.57
				c5.89-0.71,4.771-9.75-1.12-9.04l-79.8,9.7l-86.67,10.52l-0.42,0.06c-5.89,0.71-4.76,9.75,1.12,9.04l79.8-9.7l86.68-10.52
				L205.13,124.57z M155.81,170.33c5.91-0.72,4.79-9.85-1.119-9.12L63.5,172.4l-22.1,2.72c-5.9,0.72-4.78,9.84,1.12,9.12l91.19-11.2
				L155.81,170.33z M118.96,264.39c2.96-0.35,2.39-4.88-0.57-4.529l-65.22,7.899c-2.96,0.351-2.39,4.88,0.56,4.53L118.96,264.39z
				 M115.55,63.42c11.84-1.45,9.6-19.74-2.24-18.29L27.99,55.6l-0.67,0.08c-11.84,1.45-9.6,19.74,2.24,18.29l85.32-10.46
				L115.55,63.42z"/>
		</g>
		<g>
		</g>
	</g>
</g>
<circle fill="#FFFFFF" cx="173" cy="47.334" r="13.167"/>
</svg>
