<?xml version="1.0" encoding="UTF-8" standalone="no"?>
<svg width="252px" height="295px" viewBox="0 0 252 295" version="1.1" xmlns="http://www.w3.org/2000/svg" xmlns:xlink="http://www.w3.org/1999/xlink" xmlns:sketch="http://www.bohemiancoding.com/sketch/ns">
    <title>headerAV</title>
    <description>Created with Sketch (http://www.bohemiancoding.com/sketch)</description>
    <defs></defs>
    <g id="Page-1" stroke="none" stroke-width="1" fill="none" fill-rule="evenodd" sketch:type="MSPage">
        <g id="website" sketch:type="MSArtboardGroup" transform="translate(-374.000000, -269.000000)">
            <g id="header-visuals" sketch:type="MSLayerGroup" transform="translate(122.000000, 240.000000)">
                <g id="Path-copy-+-AV" transform="translate(216.000000, 0.000000)" sketch:type="MSShapeGroup">
                    <path d="M39.1065094,288.494252 L69.5674805,38.8381601 C70.0542924,34.8482816 73.549509,31.9964948 77.3740689,32.4690608 L279.350501,57.4254479 C283.174458,57.8979394 285.880285,61.5159328 285.393473,65.5058112 L254.932502,315.161903 C254.44569,319.151781 250.950474,322.003568 247.126517,321.531077 L45.1500848,296.57469 C41.3255249,296.102124 38.6196974,292.48413 39.1065094,288.494252 Z" id="Path-copy" stroke="#43A6C9" stroke-width="2"></path>
                    <g id="AV" transform="translate(161.000000, 175.500000) rotate(15.000000) translate(-161.000000, -175.500000) translate(34.000000, 28.000000)" fill="#FFFEFE">
                        <path d="M247.942867,266.27093 L43.5525066,294.933132 C39.6822373,295.47587 36.0854058,292.655268 35.5189674,288.633688 L0.0755873559,36.9939527 C-0.490850966,32.9723727 2.18747352,29.2717888 6.0577428,28.7290507 L210.448103,0.0668486012 C214.317762,-0.475803969 217.914594,2.3447981 218.481032,6.36637813 L253.924412,258.006113 C254.490851,262.027693 251.812526,265.728277 247.942867,266.27093 Z M122.130824,115.159509 L128.151859,114.304055 C134.070708,113.46312 132.784755,104.213046 126.865906,105.053981 L36.8691763,117.840491 L30.8481412,118.695945 C24.9292923,119.53688 26.2152449,128.786954 32.1340938,127.946019 L122.130824,115.159509 Z M127.130824,154.159509 L133.151859,153.304055 C139.070708,152.46312 137.784755,143.213046 131.865906,144.053981 L41.8691763,156.840491 L35.8481412,157.695945 C29.9292923,158.53688 31.2152449,167.786954 37.1340938,166.946019 L127.130824,154.159509 Z M112.702866,134.042544 L206.653671,120.900845 L209.083727,120.560932 C212.031115,120.148656 211.39082,115.614191 208.443432,116.026467 L130.297134,126.957456 L36.3463291,140.099155 L33.9162728,140.439068 C30.9688849,140.851344 31.6091799,145.385809 34.5565678,144.973533 L112.702866,134.042544 Z M117.702531,173.042597 L211.653656,159.90086 L214.083721,159.560946 C217.031119,159.148668 216.390821,154.61419 213.443424,155.026467 L135.297469,165.957403 L41.3463439,179.09914 L38.9162793,179.439054 C35.9688814,179.851332 36.6091786,184.38581 39.5565765,183.973533 L117.702531,173.042597 Z M135.079809,190.564098 C138.033224,190.151535 137.391619,185.613923 134.438204,186.026486 L59.9201914,196.435902 C56.9667764,196.848465 57.6083807,201.386077 60.5617958,200.973514 L135.079809,190.564098 Z M138.079809,210.564098 C141.033224,210.151535 140.391619,205.613923 137.438204,206.026486 L62.9201914,216.435902 C59.9667764,216.848465 60.6083807,221.386077 63.5617958,220.973514 L138.079809,210.564098 Z M126.702591,232.042577 L220.653686,218.900831 L223.083734,218.560919 C226.031112,218.148644 225.390819,213.614192 222.443441,214.026467 L144.297409,224.957423 L50.3463143,238.099169 L47.9162662,238.439081 C44.9688885,238.851356 45.6091813,243.385808 48.5565591,242.973533 L126.702591,232.042577 Z M112.622188,62.1414914 L113.299366,62.0482327 C125.143843,60.4170495 122.570332,42.47352 110.725854,44.1047033 L25.3776532,55.8585824 L24.7010883,55.9517568 C12.8559985,57.5830244 15.4295098,75.5265538 27.2745996,73.8952862 L112.622188,62.1414914 Z M156.215516,50.070399 C157.901227,62.1003989 169.020844,70.477751 181.051973,68.781876 C193.083527,67.0859411 201.470206,55.9591303 199.784481,43.9290371 C198.098767,31.8990165 186.979205,23.522207 174.947578,25.2181521 C162.916377,26.9140373 154.529815,38.0404718 156.215516,50.070399 Z M173.443287,33.7663435 C166.13454,36.2829469 162.24974,44.2479663 164.766344,51.5567134 C167.282947,58.8654604 175.247966,62.7502599 182.556713,60.2336565 C189.86546,57.7170531 193.75026,49.7520337 191.233656,42.4432866 C188.717053,35.1345396 180.752034,31.2497401 173.443287,33.7663435 Z M47,223 C48.6568543,223 50,221.656854 50,220 C50,218.343146 48.6568543,217 47,217 C45.3431457,217 44,218.343146 44,220 C44,221.656854 45.3431457,223 47,223 Z M44,203 C45.6568543,203 47,201.656854 47,200 C47,198.343146 45.6568543,197 44,197 C42.3431457,197 41,198.343146 41,200 C41,201.656854 42.3431457,203 44,203 Z" id="Fill-12"></path>
                    </g>
                </g>
            </g>
        </g>
    </g>
</svg>