<?xml version="1.0" encoding="utf-8"?>
<!-- Generator: Adobe Illustrator 16.0.0, SVG Export Plug-In . SVG Version: 6.00 Build 0)  -->
<!DOCTYPE svg PUBLIC "-//W3C//DTD SVG 1.1//EN" "http://www.w3.org/Graphics/SVG/1.1/DTD/svg11.dtd">
<svg version="1.1" id="Layer_1" xmlns:sketch="http://www.bohemiancoding.com/sketch/ns"
	 xmlns="http://www.w3.org/2000/svg" xmlns:xlink="http://www.w3.org/1999/xlink" x="0px" y="0px" width="252px" height="295px"
	 viewBox="0 0 252 295" enable-background="new 0 0 252 295" xml:space="preserve">
<title>headerAV</title>
<description>Created with Sketch (http://www.bohemiancoding.com/sketch)</description>
<g id="Page-1" sketch:type="MSPage">
	<g id="website" transform="translate(-374.000000, -269.000000)" sketch:type="MSArtboardGroup">
		<g id="header-visuals" transform="translate(122.000000, 240.000000)" sketch:type="MSLayerGroup">
			<g id="Path-copy-_x2B_-AV" transform="translate(216.000000, 0.000000)" sketch:type="MSShapeGroup">
				<path id="Path-copy" fill="none" stroke="#43A6C9" stroke-width="3" d="M39.106,288.494L69.567,38.838
					c0.487-3.99,3.982-6.842,7.807-6.369l201.978,24.956c3.822,0.473,6.529,4.091,6.043,8.081l-30.461,249.656
					c-0.488,3.99-3.981,6.842-7.807,6.369L45.15,296.574C41.326,296.102,38.62,292.484,39.106,288.494z"/>
				
					<g id="AV" transform="translate(161.000000, 175.500000) rotate(15.000000) translate(-161.000000, -175.500000) translate(34.000000, 28.000000)">
					<path id="Fill-12" fill="#FFFEFE" d="M247.943,266.271L43.552,294.933c-3.87,0.543-7.467-2.279-8.034-6.299L0.076,36.994
						c-0.567-4.022,2.112-7.722,5.982-8.265l204.39-28.662c3.869-0.542,7.467,2.278,8.033,6.3l35.442,251.64
						C254.491,262.026,251.813,265.729,247.943,266.271z M122.131,115.16l6.022-0.856c5.919-0.841,4.632-10.091-1.286-9.25
						L36.869,117.84l-6.021,0.856c-5.919,0.841-4.633,10.091,1.286,9.25L122.131,115.16z M127.131,154.16l6.021-0.855
						c5.919-0.842,4.634-10.092-1.286-9.251L41.869,156.84l-6.021,0.856c-5.919,0.841-4.633,10.091,1.286,9.25L127.131,154.16z
						 M112.703,134.043l93.951-13.142l2.43-0.34c2.947-0.412,2.306-4.947-0.642-4.534l-78.145,10.931L36.346,140.1l-2.43,0.34
						c-2.947,0.412-2.307,4.947,0.64,4.534L112.703,134.043z M117.702,173.042l93.951-13.141l2.429-0.341
						c2.948-0.413,2.308-4.948-0.64-4.536l-78.145,10.932l-93.952,13.14l-2.43,0.341c-2.947,0.413-2.307,4.946,0.64,4.535
						L117.702,173.042z M135.08,190.564c2.954-0.411,2.312-4.95-0.642-4.537L59.92,196.435c-2.954,0.413-2.312,4.951,0.642,4.537
						L135.08,190.564z M138.08,210.564c2.954-0.413,2.312-4.951-0.642-4.537L62.92,216.436c-2.953,0.413-2.312,4.951,0.642,4.537
						L138.08,210.564z M126.703,232.043l93.95-13.143l2.43-0.34c2.947-0.412,2.307-4.947-0.641-4.534l-78.146,10.93l-93.951,13.141
						l-2.43,0.341c-2.947,0.412-2.307,4.946,0.64,4.535L126.703,232.043z M112.623,62.141l0.677-0.093
						c11.846-1.631,9.271-19.575-2.574-17.943L25.378,55.858l-0.677,0.093c-11.845,1.632-9.272,19.575,2.574,17.943L112.623,62.141z
						 M156.214,50.07c1.687,12.03,12.806,20.408,24.838,18.711c12.031-1.696,20.418-12.823,18.731-24.852
						c-1.685-12.03-12.804-20.407-24.836-18.711C162.916,26.914,154.53,38.041,156.214,50.07z M173.443,33.766
						c-7.309,2.516-11.193,10.482-8.677,17.79c2.516,7.309,10.482,11.193,17.79,8.677c7.309-2.517,11.194-10.482,8.676-17.791
						C188.717,35.135,180.752,31.25,173.443,33.766z M47,223c1.657,0,3-1.343,3-3c0-1.657-1.343-3-3-3C45.343,217,44,218.343,44,220
						C44,221.657,45.343,223,47,223z M44,203c1.657,0,3-1.344,3-3c0-1.657-1.343-3.001-3-3c-1.657-0.002-3,1.342-3,3
						C41,201.656,42.343,203,44,203z"/>
				</g>
			</g>
		</g>
	</g>
</g>
</svg>
