<?xml version="1.0" encoding="UTF-8" standalone="no"?>
<svg width="231px" height="202px" viewBox="0 0 231 202" version="1.1" xmlns="http://www.w3.org/2000/svg" xmlns:xlink="http://www.w3.org/1999/xlink" xmlns:sketch="http://www.bohemiancoding.com/sketch/ns">
    <title>jurist</title>
    <description>Created with Sketch (http://www.bohemiancoding.com/sketch)</description>
    <defs>
        <filter x="-20%" y="-20%" width="140%" height="140%" filterUnits="objectBoundingBox" id="filter-1">
            <feOffset dx="0" dy="2" in="SourceAlpha" result="shadowOffsetOuter1"></feOffset>
            <feGaussianBlur stdDeviation="0" in="shadowOffsetOuter1" result="shadowBlurOuter1"></feGaussianBlur>
            <feColorMatrix values="0 0 0 0 0.262745098   0 0 0 0 0.650980392   0 0 0 0 0.784313725  0 0 0 0.7 0" in="shadowBlurOuter1" type="matrix" result="shadowMatrixOuter1"></feColorMatrix>
            <feMerge>
                <feMergeNode in="shadowMatrixOuter1"></feMergeNode>
                <feMergeNode in="SourceGraphic"></feMergeNode>
            </feMerge>
        </filter>
    </defs>
    <g id="Page-1" stroke="none" stroke-width="1" fill="none" fill-rule="evenodd" sketch:type="MSPage">
        <g id="website" sketch:type="MSArtboardGroup" transform="translate(-515.000000, -866.000000)">
            <g id="in-3-stappen" sketch:type="MSLayerGroup" transform="translate(134.000000, 760.000000)">
                <g id="jurist" transform="translate(381.000000, 106.372192)" sketch:type="MSShapeGroup">
                    <path d="M81.2133997,123.416104 C51.6106758,132.422369 15.7419121,134.797895 15.7419121,134.797895 C-0.903028196,159.840195 0.00889314917,198.929645 0.00889314917,198.929645 L102.845035,198.929645 L96.0691339,152.938711 C95.8349663,152.90645 95.5864712,152.854219 95.3231098,152.781108 C78.3930753,148.081123 73.8726215,153.350389 73.8726215,153.350389 L81.2133997,123.416104 Z M90.3991167,120.310945 C90.6725425,120.207984 90.9449279,120.104337 91.2162327,120 L91.7076677,123.335579 C91.1974694,122.130354 90.7485504,121.100651 90.3991167,120.310945 Z" id="Fill-1" fill="#FFFFFF" filter="url(#filter-1)"></path>
                    <path d="M149.376718,128 C178.291297,136.852108 213.861344,139.26701 213.861344,139.26701 C229.965728,163.08012 228.988555,199 228.988555,199 L129,199 L135.731308,155.773739 C140.763016,154.417788 144.6649,153.948092 147.653783,153.948092 C154.397731,153.948092 156.497922,156.339272 156.497922,156.339272 L149.376718,128 M146.888116,125 L153.810531,152.704246 C152.310383,152.280415 150.361938,151.969923 147.873983,151.969923 C144.291482,151.969923 140.115133,152.609003 135.459436,153.871923 L134.246509,154.200511 L127,201 L230.93423,201 L230.983717,199.145621 C231.024472,197.648403 231.789101,162.214246 215.567905,138.089228 L215.039069,137.303474 L214.082312,137.238709 C213.730078,137.213946 178.472726,134.725249 150.174662,126.012432 L146.888116,125" id="Imported-Layers" fill-opacity="0.7" fill="#43A6C8"></path>
                    <path d="M146.957611,124.173445 C176.695547,133.503282 213.278361,136.04724 213.278361,136.04724 C229.840814,161.143811 228.835762,198.998338 228.835762,198.998338 L126,198.998338 L132.922783,153.444913 C149.777573,148.789297 154.281346,154.039562 154.281346,154.039562 L146.957611,124.173445 Z M166.646492,176.687836 L191.726364,176.687836 C193.107076,176.687836 194.226364,175.568548 194.226364,174.187836 C194.226364,172.807124 193.107076,171.687836 191.726364,171.687836 L166.646492,171.687836 C165.26578,171.687836 164.146492,172.807124 164.146492,174.187836 C164.146492,175.568548 165.26578,176.687836 166.646492,176.687836 Z" id="Fill-3" fill="#FFFFFF"></path>
                    <path d="M142.626,129.438 C142.626,129.438 141.009,123.334 140,117" id="Imported-Layers" stroke-opacity="0.7" stroke="#43A6C8" stroke-width="2"></path>
                    <path d="M90.6744648,117.82012 C89.9060116,121.186079 88.6477301,125.017349 86.5888133,128.388865 C86.5888133,128.388865 109.349595,163.387892 113.404014,163.641032 C117.458814,163.894173 142.22932,128.901597 142.22932,128.901597 C142.22932,128.901597 140.612365,122.797638 139.603231,116.463701 C137.276507,118.406952 125.381559,128.355867 123.847586,129.929715 C119.106279,133.535179 108.589343,132.68724 104.446735,129.929715 C103.593292,129.336669 96.5272145,123.053964 90.6744648,117.82012 Z" id="Fill-9" fill="#FFFFFF"></path>
                    <path d="M140.734,114.761 L148.682,107.962 L152.569,90.33 C152.569,90.33 153.324,87.893 154.203,83.959 C160.56,79.365 161.906,59.737 154.826,62.557 L156.569,54.535 C156.742,53.519 158.67,36.75 155.973,28.017 C153.275,22.437 150.039,9.337 129,4" id="Imported-Layers" stroke-opacity="0.7" stroke="#43A6C8" stroke-width="2"></path>
                    <path d="M155.989505,53.1909016 C156.161686,52.1749016 158.089503,35.4061702 155.392763,26.6726455 C152.694883,21.0930149 149.458415,7.9927278 128.419662,2.6554525 C122.13145,1.06522321 106.12015,-2.01443595 100.038707,0.714790529 C100.038707,0.714790529 105.264947,-0.376900062 105.645038,5.7183724 C97.0135692,4.99057868 74.637659,18.9922383 71.2468743,25.0958804 C68.2061527,34.4662246 67.7310399,43.1997494 69.0613556,51.0235319 C70.7717615,57.2097786 70.8759063,58.3014692 72.3396336,62.6682316 C64.6523093,61.3338218 68.0290307,82.7105791 75.834563,84.9452698 C76.154599,86.2094475 76.4898385,87.4910922 76.8577659,88.8087628 L82.846087,107.929723 C82.846087,107.929723 103.122759,126.195527 104.607011,127.228266 C108.749234,129.989151 119.26519,130.838123 124.006055,127.228266 C125.707339,125.480469 140.154187,113.41656 140.154187,113.41656 L148.102253,106.618239 L151.989436,88.9856166 C151.989436,88.9856166 152.744675,86.5493271 153.623444,82.6148742 C159.979312,78.0206763 161.325972,58.3924434 154.245651,61.2126441 L155.989505,53.1909016 Z M101.751334,59.4515836 C102.577001,59.5191448 103.301106,58.9045782 103.368668,58.0789106 C103.436229,57.253243 102.821662,56.529138 101.995995,56.4615767 C97.3983628,56.0853698 92.1858744,59.5912698 88.2124927,64.0246524 C87.6595864,64.641569 87.711477,65.5898979 88.3283936,66.1428042 C88.9453102,66.6957105 89.8936391,66.6438199 90.4465454,66.0269033 C93.8317166,62.2498286 98.399817,59.1773415 101.751334,59.4515836 Z M124.55887,56.2088161 C123.733203,56.2763774 123.118636,57.0004825 123.186198,57.82615 C123.253759,58.6518176 123.977864,59.2663842 124.803532,59.198823 C128.155228,58.9245663 132.724171,61.9975085 136.108228,65.77404 C136.661077,66.3910075 137.609401,66.4429855 138.226369,65.890136 C138.843336,65.3372866 138.895314,64.3889625 138.342465,63.771995 C134.370271,59.3391156 129.156671,55.8325954 124.55887,56.2088161 Z M132.248381,97.5982447 C132.973641,97.1978831 133.237023,96.2853865 132.836661,95.5601265 C132.4363,94.8348665 131.523803,94.5714843 130.798543,94.9718459 C120.269026,100.784401 107.098815,101.172217 98.8952546,95.7899243 C98.2025997,95.3354788 97.2726911,95.5285856 96.8182456,96.2212404 C96.3638,96.9138952 96.5569068,97.8438039 97.2495616,98.2982494 C106.455315,104.338074 120.80452,103.915541 132.248381,97.5982447 Z M124.805687,106.533226 C125.190508,105.799602 124.907748,104.892923 124.174124,104.508102 C123.4405,104.12328 122.533821,104.40604 122.149,105.139664 C121.929192,105.558705 121.083845,106.204905 120.027346,106.542451 C118.559762,107.011336 116.862002,106.893976 115.003198,106.002134 C114.256292,105.643774 113.360296,105.958752 113.001935,106.705659 C112.643574,107.452565 112.958553,108.348561 113.705459,108.706922 C118.431561,110.974474 123.290316,109.422129 124.805687,106.533226 Z M111.686095,83.9773809 C111.661061,84.0214797 111.59668,84.0713343 111.573438,84.0786156 C111.780502,84.0137465 112.169666,84.0394473 113.381332,84.2134089 C114.400858,84.3597847 114.999893,84.4184923 115.699523,84.4065098 C118.231908,84.3631376 120.1751,83.1667097 121.367465,80.4398512 C121.699366,79.6808167 121.353106,78.7964389 120.594071,78.4645381 C119.835037,78.1326372 118.950659,78.4788974 118.618758,79.2379319 C117.914356,80.8488524 117.046823,81.3829946 115.648149,81.4069497 C115.15404,81.4154123 114.676811,81.368642 113.807677,81.2438585 C112.026864,80.9881832 111.511763,80.9541653 110.676578,81.2158125 C109.293121,81.6492224 108.609846,82.8528253 108.609846,84.5829014 C108.609846,85.4113285 109.281419,86.0829014 110.109846,86.0829014 C110.938273,86.0829014 111.609846,85.4113285 111.609846,84.5829014 C111.609846,84.235083 111.650007,84.0409521 111.686095,83.9773809 Z M131.810807,65.6301646 C131.810807,67.074887 130.640165,68.2467327 129.196359,68.2467327 C127.752091,68.2467327 126.581449,67.074887 126.581449,65.6301646 C126.581449,64.1849806 127.752091,63.0135965 129.196359,63.0135965 C130.640165,63.0135965 131.810807,64.1849806 131.810807,65.6301646 Z M102.668097,65.6301646 C102.668097,67.074887 101.497455,68.2467327 100.053648,68.2467327 C98.6098417,68.2467327 97.4387387,67.074887 97.4387387,65.6301646 C97.4387387,64.1849806 98.6098417,63.0135965 100.053648,63.0135965 C101.497455,63.0135965 102.668097,64.1849806 102.668097,65.6301646 Z" id="Fill-11-copy" fill="#FFFFFF"></path>
                </g>
            </g>
        </g>
    </g>
</svg>