<?xml version="1.0" encoding="utf-8"?>
<!-- Generator: Adobe Illustrator 16.0.0, SVG Export Plug-In . SVG Version: 6.00 Build 0)  -->
<!DOCTYPE svg PUBLIC "-//W3C//DTD SVG 1.1//EN" "http://www.w3.org/Graphics/SVG/1.1/DTD/svg11.dtd">
<svg version="1.1" id="Layer_1" xmlns="http://www.w3.org/2000/svg" xmlns:xlink="http://www.w3.org/1999/xlink" x="0px" y="0px"
	 width="231px" height="202px" viewBox="0 0 231 202" enable-background="new 0 0 231 202" xml:space="preserve">
<g id="Layer_2">
</g>
<polygon opacity="0.7" fill="#43A6C8" enable-background="new    " points="103.436,202 0,202 0,198.75 102.836,198.75 "/>
<title>jurist</title>
<description>Created with Sketch (http://www.bohemiancoding.com/sketch)</description>
<path id="Fill-1" fill="#FFFFFF" d="M81.213,123.861c-29.603,9.007-65.472,11.382-65.472,11.382
	c-16.645,25.043-15.733,64.132-15.733,64.132h102.836l-6.776-45.991c-0.234-0.03-0.483-0.084-0.746-0.157
	c-16.93-4.699-21.451,0.569-21.451,0.569L81.213,123.861z M90.399,120.757c0.273-0.104,0.546-0.207,0.817-0.312l0.491,3.336
	C91.197,122.575,90.749,121.546,90.399,120.757z"/>
<path id="Imported-Layers" opacity="0.7" fill="#43A6C8" enable-background="new    " d="M149.377,128.372
	c28.914,8.853,64.484,11.267,64.484,11.267c16.104,23.813,15.127,59.733,15.127,59.733H129l6.73-43.226
	c5.033-1.356,8.935-1.826,11.924-1.826c6.744,0,8.844,2.391,8.844,2.391L149.377,128.372 M147.625,125.875l7,28.5
	c-1.5-0.424-4.264-2.033-6.751-2.033c-3.583,0-7.759,0.641-12.415,1.902l-1.213,0.328L125.812,202h105.121l0.051-2.482
	c0.039-1.496,0.805-36.932-15.416-61.057l-1.193-1.836l-1.098-0.205c-0.352-0.025-34.805-1.322-63.104-10.035L147.625,125.875"/>
<path id="Fill-3" fill="#FFFFFF" d="M146.957,124.546c29.738,9.329,66.32,11.874,66.32,11.874
	c16.562,25.096,15.559,62.951,15.559,62.951H126l6.923-45.555c16.854-4.654,21.358,0.596,21.358,0.596L146.957,124.546z
	 M166.646,177.061h25.08c1.381,0,2.5-1.119,2.5-2.5s-1.119-2.5-2.5-2.5h-25.08c-1.381,0-2.5,1.119-2.5,2.5
	S165.266,177.061,166.646,177.061z"/>
<path opacity="0.7" fill="#43A6C8" enable-background="new    " d="M141.596,129.441c-0.016-0.059-1.56-5.756-2.563-12.066
	l1.562-1.344c0.989,6.213,2.92,12.843,2.936,12.9L141.596,129.441z"/>
<path id="Fill-9" fill="#FFFFFF" d="M90.674,118.191c-0.768,3.367-2.026,7.197-4.085,10.569c0,0,22.761,34.998,26.815,35.253
	c4.055,0.252,28.827-34.74,28.827-34.74s-1.617-6.104-2.627-12.438c-2.326,1.942-14.223,11.894-15.756,13.466
	c-4.74,3.605-15.258,2.758-19.401,0C103.593,129.709,96.527,123.426,90.674,118.191z"/>
<path opacity="0.7" fill="#43A6C8" enable-background="new    " d="M141.583,114.333l-5.333,2.75l11.809-10.072l3.814-17.305
	c0.029-0.105,0.777-2.532,1.636-6.374l0.082-0.37l0.308-0.222c4.33-3.129,6.293-14.647,4.037-18.751
	c-0.597-1.086-1.332-1.36-2.457-0.911l-1.746,0.695l2.141-9.859c0.264-1.541,1.945-17.729-0.553-25.94
	c-0.197-0.411-0.407-0.867-0.635-1.359c-2.926-6.348-8.371-18.165-27.348-22.979l-0.004-0.969
	c19.9,5.048,26.321,16.934,29.168,23.111c0.234,0.508,0.449,0.976,0.652,1.396l0.055,0.14c2.855,9.247,0.652,26.821,0.626,26.981
	l-1.428,6.579c0.002,0,0.004,0,0.005,0c1.352,0,2.499,0.738,3.275,2.152c2.636,4.796,0.629,17.093-4.308,21.098
	c-0.843,3.719-1.546,5.997-1.575,6.095l-3.938,17.877L141.583,114.333z"/>
<g>
	<path fill="#FFFFFF" d="M111.573,84.451c0.025-0.008,0.053-0.014,0.084-0.019c0.009-0.037,0.019-0.065,0.029-0.082
		C111.661,84.394,111.597,84.443,111.573,84.451z"/>
	<path fill="#FFFFFF" d="M154.246,61.585l1.742-8.022c0.174-1.016,2.102-17.785-0.596-26.518c-2.697-5.58-5.935-18.68-26.974-24.017
		c-6.289-1.59-22.3-4.67-28.381-1.941c0,0,5.227-1.092,5.606,5.004c-8.631-0.728-31.007,13.273-34.398,19.377
		c-3.041,9.37-3.516,18.104-2.186,25.927c1.71,6.187,1.814,7.278,3.278,11.645c-7.688-1.334-4.311,20.042,3.495,22.277
		c0.32,1.264,0.655,2.546,1.023,3.864l5.988,19.121c0,0,20.276,18.267,21.761,19.3c4.142,2.76,14.659,3.609,19.399,0
		c1.701-1.748,16.148-13.812,16.148-13.812l7.947-6.799l3.887-17.632c0,0,0.756-2.437,1.635-6.371
		C159.979,78.393,161.326,58.765,154.246,61.585z M110.677,81.588c0.835-0.262,1.35-0.228,3.131,0.028
		c0.869,0.125,1.346,0.171,1.84,0.163c1.399-0.024,2.266-0.558,2.971-2.169c0.332-0.759,1.216-1.105,1.975-0.773
		c0.76,0.332,1.105,1.216,0.773,1.975c-1.191,2.727-3.135,3.923-5.667,3.967c-0.7,0.012-1.299-0.047-2.318-0.193
		c-1.067-0.153-1.496-0.191-1.724-0.154c-0.026,0.099-0.047,0.27-0.047,0.523c0,0.829-0.671,1.5-1.5,1.5c-0.829,0-1.5-0.671-1.5-1.5
		C108.61,83.225,109.293,82.021,110.677,81.588z M90.447,66.399c-0.553,0.617-1.501,0.669-2.118,0.116
		c-0.617-0.553-0.669-1.501-0.116-2.118c3.974-4.434,9.186-7.939,13.784-7.563c0.826,0.067,1.44,0.792,1.373,1.617
		c-0.067,0.825-0.792,1.44-1.617,1.373C98.4,59.549,93.832,62.622,90.447,66.399z M102.668,66.002c0,1.445-1.17,2.617-2.614,2.617
		c-1.444,0-2.615-1.172-2.615-2.617s1.171-2.617,2.615-2.617C101.498,63.385,102.668,64.557,102.668,66.002z M124.807,106.904
		c-1.516,2.891-6.375,4.441-11.101,2.175c-0.747-0.358-1.062-1.255-0.704-2.001c0.358-0.747,1.254-1.062,2.001-0.703
		c1.858,0.891,3.556,1.009,5.024,0.539c1.057-0.337,1.902-0.982,2.121-1.402c0.385-0.732,1.291-1.016,2.024-0.631
		C124.908,105.266,125.189,106.172,124.807,106.904z M132.248,97.97c-11.443,6.317-25.793,6.741-34.999,0.7
		c-0.692-0.455-0.886-1.384-0.431-2.077c0.454-0.692,1.384-0.886,2.077-0.431c8.203,5.383,21.375,4.995,31.903-0.818
		c0.726-0.4,1.638-0.137,2.037,0.588C133.236,96.658,132.975,97.57,132.248,97.97z M126.582,66.002c0-1.445,1.17-2.617,2.613-2.617
		c1.445,0,2.615,1.171,2.615,2.617c0,1.445-1.17,2.617-2.615,2.617C127.752,68.619,126.582,67.447,126.582,66.002z M138.227,66.262
		c-0.617,0.553-1.564,0.501-2.117-0.116c-3.385-3.777-7.953-6.85-11.305-6.576c-0.826,0.068-1.551-0.547-1.619-1.373
		c-0.065-0.826,0.549-1.55,1.373-1.617c4.599-0.376,9.812,3.13,13.783,7.563C138.896,64.761,138.844,65.709,138.227,66.262z"/>
</g>
</svg>
