<?xml version="1.0" encoding="utf-8"?>
<!-- Generator: Adobe Illustrator 16.0.0, SVG Export Plug-In . SVG Version: 6.00 Build 0)  -->
<!DOCTYPE svg PUBLIC "-//W3C//DTD SVG 1.1//EN" "http://www.w3.org/Graphics/SVG/1.1/DTD/svg11.dtd">
<svg version="1.1" xmlns="http://www.w3.org/2000/svg" xmlns:xlink="http://www.w3.org/1999/xlink" x="0px" y="0px" width="139px"
	 height="170px" viewBox="0 0 139 170" enable-background="new 0 0 139 170" xml:space="preserve">
<g id="Layer_2">
</g>
<g id="Layer_1" xmlns:sketch="http://www.bohemiancoding.com/sketch/ns">
	<g id="XMLID_6_">
		<g>
			<path fill="#43A6C9" d="M137.001,82v82.29c0,3.15-2.14,5.71-4.77,5.71H7.761c-2.63,0-4.76-2.56-4.76-5.71V82l66.04,41.04
				L137.001,82z"/>
		</g>
		<g>
		</g>
	</g>
	<g id="XMLID_5_">
		<g>
			<polygon fill="#43A6C9" points="138,76 120,76 120,58 			"/>
		</g>
		<g>
		</g>
	</g>
	<title>klaar</title>
	<description>Created with Sketch (http://www.bohemiancoding.com/sketch)</description>
	<g id="XMLID_3_">
		<g>
			<path fill="#FFFFFF" d="M134.73,80v82.29c0,3.15-2.141,5.71-4.771,5.71H5.49c-2.63,0-4.76-2.56-4.76-5.71V80l66.04,41.04
				L134.73,80z"/>
		</g>
		<g>
		</g>
	</g>
	<path id="Imported-Layers" sketch:type="MSShapeGroup" fill="#43A6C9" d="M31.564,2.982c0.028,0,0.056,0,0.085,0.001l77.195,1.345
		c2.814,0.048,5.057,2.526,5.004,5.535l-0.648,78.34l-44.587,25.898L24.953,86.99l1.501-78.649
		C26.505,5.363,28.785,2.982,31.564,2.982 M31.564,1.049c-3.814,0-6.973,3.256-7.043,7.258l-1.396,79.255l0.625,0.5l45.125,28.125
		l45.295-26.312l0.951-0.555l0.658-79.441c0.034-1.93-0.65-3.779-1.924-5.189c-1.309-1.446-3.076-2.261-4.978-2.294L31.683,1.051
		L31.564,1.049"/>
	<path fill="#FFFFFF" d="M108.547,1.393L28.656,0.001c-2.915-0.051-5.322,2.432-5.376,5.545l-1.553,81.396L66.911,115l46.144-26.803
		l0.671-81.076C113.78,4.008,111.461,1.443,108.547,1.393z M45.22,15.001l46.102,0.818c4.598,0.082,4.51,5.261-0.089,5.18
		l-46.102-0.818C40.533,20.099,40.622,14.919,45.22,15.001z M30.483,40l4.468,0.083l70.078,1.3c2.303,0.043,2.243,3.659-0.059,3.616
		l-4.469-0.083l-70.078-1.3C28.122,43.573,28.181,39.958,30.483,40z M104.971,85l-4.469-0.083l-70.078-1.3
		c-2.302-0.043-2.243-3.659,0.059-3.616l4.468,0.083l70.078,1.3C107.332,81.427,107.272,85.042,104.971,85z M105.971,66
		l-4.469-0.083l-70.078-1.3c-2.302-0.043-2.243-3.659,0.059-3.616l4.468,0.083l70.078,1.3C108.332,62.427,108.272,66.042,105.971,66
		z"/>
	<g id="XMLID_4_">
		<g>
			<polygon fill="#FFFFFF" points="135.73,76 117.73,76 117.73,58 			"/>
		</g>
		<g>
		</g>
	</g>
	<g id="Fill-4">
		<g sketch:type="MSShapeGroup">
			<path id="path-3" fill="#FFFFFF" d="M18.727,58l-9,9.034l-9,8.966h18V58"/>
		</g>
		<g>
			<path id="path-3_1_" fill="none" d="M18.727,58l-9,9.034l-9,8.966h18V58"/>
		</g>
		<g>
			<path id="path-3_2_" fill="none" d="M18.727,58l-9,9.034l-9,8.966h18V58"/>
		</g>
		<g>
			<path id="path-3_3_" fill="none" d="M18.727,58l-9,9.034l-9,8.966h18V58"/>
		</g>
	</g>
</g>
</svg>
