<?xml version="1.0" encoding="utf-8"?>
<!-- Generator: Adobe Illustrator 16.0.0, SVG Export Plug-In . SVG Version: 6.00 Build 0)  -->
<!DOCTYPE svg PUBLIC "-//W3C//DTD SVG 1.1//EN" "http://www.w3.org/Graphics/SVG/1.1/DTD/svg11.dtd">
<svg version="1.1" xmlns="http://www.w3.org/2000/svg" xmlns:xlink="http://www.w3.org/1999/xlink" x="0px" y="0px" width="350px"
	 height="94.25px" viewBox="0 0 350 94.25" enable-background="new 0 0 350 94.25" xml:space="preserve">
<g id="rol">
	<g opacity="0.7">
		<path fill="none" stroke="#42A6C8" stroke-miterlimit="10" d="M171.332,6.537c1.292,0.342,2.971,0.57,4.851,0.648
			c2.3,0.099,4.514,0.022,6.413-0.319c4.849-0.875,5.59-3.192,2.979-4.41c-2.001-0.93-3.622-1.17-6.627-1.166
			c-3.539,0.006-7.785,1.2-7.785,1.2c-0.821,0.217-1.377,0.394-1.884,0.585"/>
		<path fill="none" stroke="#42A6C8" stroke-miterlimit="10" d="M174.018,2.864c-0.143,0.019-0.789,0.111-1.708,0.329
			c0.641-0.137,1.218-0.228,1.772-0.325c0,0,2.569-0.522,5.01-0.571c0,0,6.168-0.203,6.221,1.723
			c0.031,1.215-2.931,1.579-3.927,1.705"/>
		<path fill="none" stroke="#42A6C8" stroke-miterlimit="10" d="M167.137,5.786c-0.004-0.289,0.14-0.51,0.355-0.689
			c0.245-0.202,0.661-0.47,0.931-0.594c1.41-0.648,2.826-1.062,3.887-1.311 M176.832,92.368c0,0,5.621-5.619,7.199-8.188
			c0,0,4.045-5.029,3.453-13.117c0,0-0.789-13.217-3.453-27.619c0,0-3.158-19.63-1.874-24.859c0,0,2.922-6.416,4.727-11.596
			 M168.741,44.331 M165.982,5.37"/>
	</g>
</g>
<g id="streepjes">
	<g>
		<path fill="none" d="M171.354,47.915c0.073,0.016,1.809,0.35,4.985,0.383c0.122,0.002,0.247,0.004,0.369,0.004
			c2.953,0,4.322-0.383,4.382-0.398c0.405-0.119,0.649-0.582,0.551-1.039c-0.104-0.455-0.515-0.736-0.921-0.623
			c-0.014,0.002-1.387,0.375-4.367,0.346c-3.016-0.031-4.696-0.352-4.738-0.359c-0.411-0.08-0.806,0.232-0.876,0.695
			C170.667,47.389,170.94,47.833,171.354,47.915z"/>
		<path fill="none" d="M178.6,36.751c-0.01,0.004-0.738,0.337-2.311,0.309c-1.645-0.029-2.558-0.332-2.571-0.337
			c-0.383-0.131-0.778,0.131-0.889,0.583c-0.109,0.454,0.107,0.93,0.488,1.062c0.043,0.015,1.087,0.371,2.95,0.406
			c0.073,0,0.146,0.002,0.216,0.002c1.738,0,2.569-0.395,2.662-0.441c0.366-0.184,0.542-0.687,0.386-1.122
			C179.377,36.776,178.962,36.568,178.6,36.751z"/>
		<path fill="none" d="M178.881,55.292c-0.012,0.006-1.337,0.344-2.595,0.344s-2.774-0.34-2.804-0.348
			c-0.482-0.109-0.964,0.18-1.076,0.639c-0.117,0.457,0.182,0.916,0.66,1.027c0.072,0.018,1.74,0.395,3.22,0.395
			c1.493,0,3.001-0.385,3.061-0.4c0.478-0.125,0.761-0.592,0.629-1.049C179.849,55.442,179.356,55.172,178.881,55.292z"/>
		<path fill="none" d="M172.564,33.813c0.055,0.013,1.361,0.356,3.731,0.392c0.095,0.002,0.184,0.002,0.27,0.002
			c2.229,0,3.278-0.396,3.323-0.417c0.377-0.144,0.58-0.623,0.459-1.07c-0.117-0.449-0.521-0.698-0.896-0.559
			c-0.012,0.004-1,0.359-3.138,0.331c-2.203-0.031-3.426-0.347-3.436-0.349c-0.386-0.104-0.771,0.187-0.857,0.647
			C171.935,33.252,172.179,33.71,172.564,33.813z"/>
		<path fill="none" d="M173.684,24.675c0.056,0.016,1.396,0.393,2.586,0.393c1.198,0,2.404-0.383,2.456-0.4
			c0.382-0.123,0.607-0.592,0.506-1.049c-0.104-0.455-0.496-0.726-0.882-0.604c-0.01,0.004-1.07,0.341-2.08,0.341
			c-1.02,0-2.242-0.342-2.255-0.347c-0.385-0.108-0.772,0.175-0.861,0.635C173.06,24.105,173.3,24.566,173.684,24.675z"/>
		<path fill="none" d="M172.564,29.147c0.055,0.013,1.361,0.356,3.731,0.391c0.095,0.001,0.185,0.001,0.272,0.001
			c2.226,0,3.275-0.396,3.32-0.414c0.377-0.147,0.58-0.625,0.459-1.072c-0.117-0.449-0.521-0.699-0.896-0.559
			c-0.012,0.005-0.998,0.359-3.138,0.33c-2.195-0.03-3.417-0.344-3.436-0.349c-0.386-0.103-0.771,0.187-0.857,0.648
			C171.935,28.585,172.179,29.042,172.564,29.147z"/>
		<path fill="none" d="M170.499,52.487c0.086,0.012,2.128,0.352,5.866,0.385c0.143,0,0.288,0,0.428,0c3.479,0,5.093-0.379,5.164-0.4
			c0.478-0.115,0.767-0.582,0.644-1.037c-0.119-0.459-0.604-0.734-1.085-0.621c-0.017,0.004-1.589,0.377-5.135,0.346
			c-3.573-0.031-5.556-0.355-5.575-0.359c-0.485-0.08-0.947,0.23-1.032,0.697C169.686,51.961,170.012,52.405,170.499,52.487z"/>
		<path fill="none" d="M168.716,65.764c0.093,0.027,2.278,0.664,7.242,0.664c0.125,0,0.251,0,0.378-0.002
			c5.229-0.031,7.259-0.639,7.346-0.666c0.45-0.141,0.699-0.613,0.564-1.066c-0.137-0.451-0.614-0.705-1.066-0.57
			c-0.019,0.004-1.938,0.561-6.854,0.59c-4.899,0.035-7.076-0.578-7.118-0.592c-0.455-0.137-0.927,0.121-1.064,0.574
			C168.004,65.151,168.263,65.625,168.716,65.764z"/>
		<path fill="none" d="M183.168,73.842c-0.02,0.002-1.935,0.586-6.825,0.586c-4.928,0-7.129-0.594-7.153-0.598
			c-0.452-0.125-0.923,0.141-1.051,0.592c-0.13,0.457,0.136,0.928,0.593,1.059c0.096,0.027,2.405,0.66,7.611,0.66
			c5.228,0,7.266-0.645,7.351-0.672c0.448-0.145,0.691-0.623,0.549-1.074C184.1,73.948,183.616,73.7,183.168,73.842z"/>
		<path fill="none" d="M168.735,70.624c0.098,0.027,2.452,0.662,7.635,0.662c5.2,0,7.238-0.646,7.323-0.672
			c0.448-0.145,0.691-0.629,0.549-1.072c-0.143-0.451-0.626-0.697-1.074-0.557c-0.02,0.006-1.933,0.588-6.798,0.588
			c-4.9,0-7.149-0.588-7.183-0.598c-0.454-0.125-0.925,0.139-1.051,0.594C168.01,70.026,168.28,70.499,168.735,70.624z"/>
		<path fill="none" d="M181.295,78.811c-0.013,0.004-1.562,0.371-4.922,0.344c-3.399-0.033-5.298-0.35-5.34-0.354
			c-0.467-0.084-0.913,0.227-0.993,0.693c-0.08,0.465,0.232,0.908,0.698,0.99c0.079,0.014,2.037,0.35,5.618,0.383
			c0.142,0,0.278,0.002,0.412,0.002c3.335,0,4.88-0.383,4.946-0.398c0.459-0.119,0.731-0.578,0.618-1.037
			C182.219,78.977,181.755,78.698,181.295,78.811z"/>
		<path fill="#FFFFFF" d="M173.728,2.572c-0.145,0.019-0.793,0.113-1.709,0.33c0.64-0.137,1.218-0.227,1.772-0.325
			c0,0,2.571-0.521,5.011-0.571c0,0,6.166-0.203,6.221,1.722c0.031,1.217-2.933,1.581-3.927,1.706
			c-1.71,0.215-3.568,0.22-5.594,0.136c-1.966-0.084-4.227-0.461-4.227-0.461c-0.518,0.14-0.662,0.9-0.234,1.136
			c1.292,0.342,2.972,0.571,4.852,0.65c2.301,0.097,4.513,0.022,6.412-0.321c4.85-0.874,5.59-3.193,2.98-4.407
			c-2.003-0.931-3.622-1.173-6.627-1.167c-3.541,0.007-7.785,1.2-7.785,1.2c-0.822,0.216-1.378,0.394-1.885,0.586
			c2.193-0.747,4.666-1.089,4.666-1.089C174.145,1.795,174.259,2.51,173.728,2.572z"/>
		<path fill="#FFFFFF" d="M167.215,3.532l0.008,0.004c0.021-0.012,0.044-0.024,0.066-0.036
			C167.262,3.51,167.239,3.521,167.215,3.532z"/>
		<path fill="#FFFFFF" d="M167.289,3.5c0.68-0.293,1.164-0.511,1.699-0.713C168.385,2.993,167.795,3.23,167.289,3.5z"/>
		<path fill="#FFFFFF" d="M187.192,70.772c0,0-0.788-13.221-3.452-27.621c0,0-3.158-19.628-1.875-24.856
			c0,0,2.923-6.417,4.729-11.596c-1.527,0.929-4.158,1.437-9.422,1.507c-0.384,0.006-0.755,0.017-1.113,0.01
			c-7.303-0.168-9.196-1.981-9.211-2.72c-0.007-0.29,0.138-0.512,0.355-0.689c0.242-0.203,0.658-0.473,0.926-0.594
			c1.41-0.646,2.829-1.061,3.889-1.311c-1.1,0.234-2.375,0.602-4.022,1.365l-0.773-0.731c-0.794,0.431-1.384,0.944-1.533,1.543
			c-0.592,2.364,3.611,11.514,5.228,13.367c0,0,1.677,2.512-2.466,25.593c0,0-3.55,20.316-2.96,27.129c0,0,0.311,7.793,3.804,12.723
			c3.496,4.934,7.243,8.189,7.243,8.189s5.623-5.625,7.202-8.189C183.74,83.891,187.785,78.862,187.192,70.772z M173.153,23.644
			c0.089-0.459,0.477-0.743,0.861-0.635c0.013,0.005,1.235,0.347,2.255,0.347c1.01,0,2.07-0.337,2.08-0.341
			c0.386-0.122,0.777,0.148,0.882,0.604c0.102,0.458-0.124,0.927-0.506,1.049c-0.052,0.017-1.258,0.4-2.456,0.4
			c-1.189,0-2.53-0.377-2.586-0.393C173.3,24.566,173.06,24.105,173.153,23.644z M172.021,28.125
			c0.087-0.461,0.472-0.751,0.857-0.648c0.019,0.005,1.24,0.319,3.436,0.349c2.14,0.029,3.126-0.325,3.138-0.33
			c0.375-0.14,0.778,0.11,0.896,0.559c0.121,0.447-0.082,0.925-0.459,1.072c-0.045,0.017-1.095,0.414-3.32,0.414
			c-0.088,0-0.178,0-0.272-0.001c-2.37-0.035-3.677-0.378-3.731-0.391C172.179,29.042,171.935,28.585,172.021,28.125z
			 M172.021,32.791c0.087-0.461,0.472-0.751,0.857-0.647c0.01,0.002,1.232,0.318,3.436,0.349c2.138,0.029,3.126-0.327,3.138-0.331
			c0.375-0.139,0.778,0.109,0.896,0.559c0.121,0.447-0.082,0.926-0.459,1.07c-0.045,0.021-1.095,0.417-3.323,0.417
			c-0.086,0-0.175,0-0.27-0.002c-2.37-0.036-3.677-0.379-3.731-0.392C172.179,33.71,171.935,33.252,172.021,32.791z M179.146,38.333
			c-0.093,0.046-0.924,0.441-2.662,0.441c-0.069,0-0.143-0.002-0.216-0.002c-1.863-0.035-2.907-0.391-2.95-0.406
			c-0.381-0.131-0.598-0.607-0.488-1.062c0.11-0.452,0.506-0.714,0.889-0.583c0.014,0.005,0.927,0.308,2.571,0.337
			c1.572,0.029,2.301-0.305,2.311-0.309c0.362-0.183,0.777,0.024,0.932,0.46C179.688,37.647,179.512,38.15,179.146,38.333z
			 M170.738,46.922c0.07-0.463,0.465-0.775,0.876-0.695c0.042,0.008,1.723,0.328,4.738,0.359c2.98,0.029,4.354-0.344,4.367-0.346
			c0.406-0.113,0.817,0.168,0.921,0.623c0.099,0.457-0.146,0.92-0.551,1.039c-0.06,0.016-1.429,0.398-4.382,0.398
			c-0.122,0-0.247-0.002-0.369-0.004c-3.177-0.033-4.912-0.367-4.985-0.383C170.94,47.833,170.667,47.389,170.738,46.922z
			 M169.773,51.497c0.085-0.467,0.547-0.777,1.032-0.697c0.02,0.004,2.002,0.328,5.575,0.359c3.546,0.031,5.118-0.342,5.135-0.346
			c0.48-0.113,0.966,0.162,1.085,0.621c0.123,0.455-0.166,0.922-0.644,1.037c-0.071,0.021-1.686,0.4-5.164,0.4
			c-0.14,0-0.285,0-0.428,0c-3.738-0.033-5.78-0.373-5.866-0.385C170.012,52.405,169.686,51.961,169.773,51.497z M179.347,56.948
			c-0.06,0.016-1.567,0.4-3.061,0.4c-1.479,0-3.147-0.377-3.22-0.395c-0.479-0.111-0.777-0.57-0.66-1.027
			c0.112-0.459,0.594-0.748,1.076-0.639c0.029,0.008,1.546,0.348,2.804,0.348s2.583-0.338,2.595-0.344
			c0.476-0.119,0.968,0.15,1.095,0.607C180.107,56.356,179.824,56.823,179.347,56.948z M168.143,64.696
			c0.138-0.453,0.609-0.711,1.064-0.574c0.042,0.014,2.219,0.627,7.118,0.592c4.916-0.029,6.836-0.586,6.854-0.59
			c0.452-0.135,0.93,0.119,1.066,0.57c0.135,0.453-0.114,0.926-0.564,1.066c-0.087,0.027-2.117,0.635-7.346,0.666
			c-0.127,0.002-0.253,0.002-0.378,0.002c-4.964,0-7.149-0.637-7.242-0.664C168.263,65.625,168.004,65.151,168.143,64.696z
			 M168.137,69.569c0.126-0.455,0.597-0.719,1.051-0.594c0.033,0.01,2.282,0.598,7.183,0.598c4.865,0,6.778-0.582,6.798-0.588
			c0.448-0.141,0.932,0.105,1.074,0.557c0.143,0.443-0.101,0.928-0.549,1.072c-0.085,0.025-2.123,0.672-7.323,0.672
			c-5.183,0-7.537-0.635-7.635-0.662C168.28,70.499,168.01,70.026,168.137,69.569z M181.715,80.471
			c-0.066,0.016-1.611,0.398-4.946,0.398c-0.134,0-0.271-0.002-0.412-0.002c-3.581-0.033-5.539-0.369-5.618-0.383
			c-0.466-0.082-0.778-0.525-0.698-0.99c0.08-0.467,0.526-0.777,0.993-0.693c0.042,0.004,1.94,0.32,5.34,0.354
			c3.359,0.027,4.909-0.34,4.922-0.344c0.46-0.113,0.924,0.166,1.038,0.623C182.446,79.893,182.174,80.352,181.715,80.471z
			 M183.693,75.469c-0.085,0.027-2.123,0.672-7.351,0.672c-5.206,0-7.516-0.633-7.611-0.66c-0.457-0.131-0.723-0.602-0.593-1.059
			c0.128-0.451,0.599-0.717,1.051-0.592c0.024,0.004,2.226,0.598,7.153,0.598c4.891,0,6.806-0.584,6.825-0.586
			c0.448-0.143,0.932,0.105,1.074,0.553C184.385,74.846,184.142,75.325,183.693,75.469z"/>
		<path fill="#FFFFFF" d="M172.019,2.902c0.916-0.217,1.564-0.312,1.709-0.33c0.531-0.062,0.417-0.777-0.073-0.875
			c0,0-2.473,0.342-4.666,1.089c-0.535,0.203-1.02,0.42-1.699,0.713c-0.022,0.012-0.046,0.024-0.066,0.036l0.773,0.731
			C169.644,3.504,170.919,3.136,172.019,2.902z"/>
	</g>
</g>
<g id="font">
	<g>
		<g opacity="0.7">
			<path fill="#42A6C8" d="M3.189,53.073c1.216,0.783,2.436,1.176,3.665,1.176c1.224,0,2.086-0.393,2.578-1.176
				c0.493-0.787,0.743-2.023,0.743-3.719V32.729c0.757-0.151,1.724-0.228,2.9-0.228c1.178,0,2.146,0.077,2.903,0.228v16.054
				c0,3.111-0.558,5.553-1.667,7.328c-1.242,1.945-3.57,2.92-6.987,2.92c-2.351,0-4.401-0.559-6.146-1.67
				C1.431,55.694,2.102,54.262,3.189,53.073z"/>
			<path fill="#42A6C8" d="M20.836,52.313v-7.932c0-1.596-0.303-2.836-0.907-3.719c0.933-0.81,2.03-1.215,3.28-1.215
				c1.252,0,2.112,0.291,2.581,0.872c0.468,0.583,0.702,1.457,0.702,2.621v8.311c0,0.938,0.128,1.613,0.379,2.031
				c0.253,0.418,0.696,0.627,1.329,0.627c1.087,0,2.112-0.469,3.074-1.402V39.75c0.783-0.149,1.72-0.227,2.809-0.227
				c1.087,0,2.049,0.077,2.885,0.227V53.26c0,1.393,0.354,2.342,1.062,2.852c-0.102,0.504-0.329,1.025-0.683,1.574
				c-0.354,0.543-0.722,0.965-1.099,1.27c-2.027-0.076-3.471-0.963-4.33-2.658c-1.924,1.799-3.794,2.697-5.615,2.697
				c-1.823,0-3.189-0.613-4.099-1.842C21.293,55.926,20.836,54.311,20.836,52.313z"/>
			<path fill="#42A6C8" d="M40.649,42.372c0.099-0.508,0.328-1.051,0.683-1.632c0.352-0.583,0.707-1.013,1.062-1.292
				c2.252,0.227,3.795,1.368,4.628,3.417c0.966-2.252,2.558-3.378,4.784-3.378c0.836,0,1.655,0.101,2.466,0.304
				c0,0.734-0.126,1.611-0.379,2.639c-0.253,1.023-0.597,1.9-1.026,2.637c-0.53-0.178-1.163-0.291-1.896-0.342
				c-1.342,0-2.43,0.686-3.264,2.049v11.879c-0.76,0.152-1.684,0.229-2.771,0.229c-1.088,0-2.049-0.076-2.884-0.229V46.28
				C42.054,44.381,41.584,43.077,40.649,42.372z"/>
			<path fill="#42A6C8" d="M64.253,43.963v14.688c-0.76,0.152-1.682,0.229-2.77,0.229c-1.09,0-2.051-0.076-2.885-0.229V45.899
				c0-1.441-0.595-2.164-1.786-2.164h-0.53c-0.149-0.633-0.227-1.289-0.227-1.975c0-0.68,0.077-1.339,0.227-1.971
				c1.267-0.127,2.34-0.189,3.227-0.189h0.758c1.241,0,2.214,0.39,2.925,1.174C63.899,41.561,64.253,42.625,64.253,43.963z
				 M57.46,34.324c0-0.734,0.142-1.441,0.42-2.125c0.707-0.379,1.637-0.569,2.786-0.569c1.152,0,2.045,0.19,2.677,0.569
				c0.279,0.684,0.416,1.392,0.416,2.125c0,0.733-0.137,1.441-0.416,2.125c-0.632,0.379-1.557,0.57-2.772,0.57
				c-1.212,0-2.113-0.191-2.69-0.57C57.602,35.765,57.46,35.057,57.46,34.324z"/>
			<path fill="#42A6C8" d="M74.48,59.221c-2.137,0-3.783-0.883-4.934-2.658c-1.15-1.77-1.727-4.191-1.727-7.268
				c0-3.072,0.728-5.496,2.183-7.268c1.457-1.771,3.257-2.658,5.406-2.658c1.139,0,2.341,0.292,3.608,0.875v-9.261l0.264-0.266
				h2.202c1.112,0,1.896,0.253,2.353,0.759c0.455,0.505,0.684,1.392,0.684,2.658v19.05c0,1.363,0.353,2.314,1.062,2.846
				c-0.1,0.506-0.32,1.047-0.663,1.613c-0.34,0.57-0.702,1.006-1.082,1.311c-1.772-0.076-3.086-0.787-3.948-2.127
				C78.422,58.424,76.62,59.221,74.48,59.221z M76.094,54.665c1.114,0,2.088-0.541,2.924-1.633v-8.461
				c-1.088-0.658-1.974-0.986-2.659-0.986c-1.821,0-2.734,1.963-2.734,5.883c0,1.746,0.231,3.047,0.686,3.906
				C74.767,54.237,75.361,54.665,76.094,54.665z"/>
			<path fill="#42A6C8" d="M95.753,43.963v14.688c-0.758,0.152-1.684,0.229-2.77,0.229c-1.089,0-2.051-0.076-2.885-0.229V45.899
				c0-1.441-0.596-2.164-1.785-2.164h-0.532c-0.15-0.633-0.226-1.289-0.226-1.975c0-0.68,0.075-1.339,0.226-1.971
				c1.267-0.127,2.342-0.189,3.228-0.189h0.761c1.236,0,2.212,0.39,2.92,1.174C95.397,41.561,95.753,42.625,95.753,43.963z
				 M88.959,34.324c0-0.734,0.14-1.441,0.418-2.125c0.708-0.379,1.64-0.569,2.789-0.569c1.151,0,2.044,0.19,2.676,0.569
				c0.279,0.684,0.418,1.392,0.418,2.125c0,0.733-0.139,1.441-0.418,2.125c-0.632,0.379-1.555,0.57-2.771,0.57
				c-1.212,0-2.11-0.191-2.693-0.57C89.099,35.765,88.959,35.057,88.959,34.324z"/>
			<path fill="#42A6C8" d="M98.866,57.323c0.021-0.605,0.192-1.291,0.511-2.049c0.316-0.76,0.675-1.34,1.083-1.744
				c1.972,1.035,3.729,1.557,5.274,1.557c0.758,0,1.347-0.137,1.766-0.402c0.414-0.266,0.624-0.613,0.624-1.043
				c0-0.809-0.604-1.426-1.819-1.859l-2.088-0.76c-3.188-1.162-4.783-3.047-4.783-5.656c0-1.896,0.657-3.4,1.974-4.515
				c1.316-1.113,3.075-1.667,5.277-1.667c1.086,0,2.288,0.15,3.604,0.454c1.314,0.305,2.417,0.671,3.3,1.103
				c0.024,0.681-0.12,1.429-0.437,2.236c-0.314,0.812-0.7,1.383-1.157,1.711c-2.075-0.938-3.821-1.406-5.236-1.406
				c-0.556,0-0.986,0.129-1.291,0.381c-0.303,0.252-0.454,0.584-0.454,0.986c0,0.631,0.531,1.152,1.593,1.557l2.316,0.832
				c3.363,1.242,5.048,3.254,5.048,6.037c0,1.871-0.697,3.363-2.088,4.479c-1.392,1.111-3.354,1.67-5.883,1.67
				C103.468,59.221,101.089,58.586,98.866,57.323z"/>
			<path fill="#42A6C8" d="M126.721,47.989c0-0.127,0-0.244,0-0.344c0-1.416-0.146-2.48-0.438-3.188
				c-0.29-0.709-0.91-1.062-1.856-1.062c-0.949,0-1.619,0.461-2.015,1.385c-0.392,0.924-0.585,2.396-0.585,4.422
				c0,2.023,0.285,3.459,0.853,4.309c0.568,0.846,1.45,1.27,2.639,1.27s2.58-0.543,4.175-1.631c0.455,0.252,0.896,0.701,1.328,1.346
				c0.43,0.646,0.708,1.25,0.835,1.803c-0.862,0.887-1.95,1.594-3.264,2.127c-1.317,0.531-2.671,0.797-4.062,0.797
				c-2.656,0-4.701-0.9-6.131-2.697c-1.428-1.793-2.145-4.303-2.145-7.531c0-3.225,0.824-5.668,2.469-7.326
				c1.646-1.655,3.588-2.483,5.827-2.483c2.237,0,4.041,0.581,5.407,1.743c1.366,1.165,2.049,2.659,2.049,4.483
				c0,0.91-0.246,1.598-0.741,2.066c-0.493,0.469-1.187,0.701-2.086,0.701C128.082,48.176,127.328,48.116,126.721,47.989z"/>
			<path fill="#42A6C8" d="M151.199,46.088v7.896c0,1.617,0.289,2.869,0.875,3.758c-0.986,0.809-2.097,1.213-3.323,1.213
				c-1.228,0-2.068-0.293-2.522-0.877c-0.455-0.576-0.683-1.463-0.683-2.65v-8.275c0-0.938-0.129-1.615-0.382-2.031
				c-0.25-0.418-0.707-0.625-1.366-0.625c-1.062,0-2.086,0.48-3.072,1.441v12.713c-0.786,0.152-1.689,0.229-2.715,0.229
				c-1.023,0-1.967-0.076-2.825-0.229V30.984l0.266-0.266h2.2c1.113,0,1.903,0.259,2.371,0.779c0.469,0.519,0.703,1.397,0.703,2.638
				v7.437c1.719-1.443,3.44-2.163,5.162-2.163c1.72,0,3.036,0.607,3.946,1.821C150.742,42.446,151.199,44.065,151.199,46.088z"/>
		</g>
		<g>
			<g>
				<path fill="#FFFFFF" d="M2.189,52.073c1.216,0.783,2.436,1.176,3.665,1.176c1.224,0,2.086-0.393,2.578-1.176
					c0.493-0.787,0.743-2.023,0.743-3.719V31.729c0.757-0.151,1.724-0.228,2.9-0.228c1.178,0,2.146,0.077,2.903,0.228v16.054
					c0,3.111-0.558,5.553-1.667,7.328c-1.242,1.945-3.57,2.92-6.987,2.92c-2.351,0-4.401-0.559-6.146-1.67
					C0.431,54.694,1.102,53.262,2.189,52.073z"/>
				<path fill="#FFFFFF" d="M19.836,51.313v-7.932c0-1.596-0.303-2.835-0.907-3.719c0.933-0.81,2.03-1.215,3.28-1.215
					c1.252,0,2.112,0.291,2.581,0.872c0.468,0.583,0.702,1.458,0.702,2.621v8.311c0,0.938,0.128,1.613,0.379,2.031
					c0.253,0.418,0.696,0.627,1.329,0.627c1.087,0,2.112-0.469,3.074-1.402V38.75c0.783-0.149,1.72-0.227,2.809-0.227
					c1.087,0,2.049,0.077,2.885,0.227V52.26c0,1.393,0.354,2.342,1.062,2.852c-0.102,0.504-0.329,1.025-0.683,1.574
					c-0.354,0.543-0.722,0.965-1.099,1.27c-2.027-0.076-3.471-0.963-4.33-2.658c-1.924,1.799-3.794,2.697-5.615,2.697
					c-1.823,0-3.189-0.613-4.099-1.842C20.293,54.926,19.836,53.311,19.836,51.313z"/>
				<path fill="#FFFFFF" d="M39.649,41.372c0.099-0.508,0.328-1.052,0.683-1.633c0.352-0.583,0.707-1.013,1.062-1.292
					c2.252,0.227,3.795,1.368,4.628,3.417c0.966-2.252,2.558-3.378,4.784-3.378c0.836,0,1.655,0.101,2.466,0.304
					c0,0.734-0.126,1.611-0.379,2.64c-0.253,1.023-0.597,1.9-1.026,2.636c-0.53-0.178-1.163-0.291-1.896-0.342
					c-1.342,0-2.43,0.686-3.264,2.049v11.879c-0.76,0.152-1.684,0.229-2.771,0.229c-1.088,0-2.049-0.076-2.884-0.229V45.28
					C41.054,43.381,40.584,42.077,39.649,41.372z"/>
				<path fill="#FFFFFF" d="M63.253,42.963v14.688c-0.76,0.152-1.682,0.229-2.77,0.229c-1.09,0-2.051-0.076-2.885-0.229V44.899
					c0-1.441-0.595-2.164-1.786-2.164h-0.53c-0.149-0.633-0.227-1.29-0.227-1.974c0-0.681,0.077-1.339,0.227-1.972
					c1.267-0.127,2.34-0.189,3.227-0.189h0.758c1.241,0,2.214,0.39,2.925,1.174C62.899,40.561,63.253,41.625,63.253,42.963z
					 M56.46,33.324c0-0.734,0.142-1.441,0.42-2.125c0.707-0.379,1.637-0.569,2.786-0.569c1.152,0,2.045,0.19,2.677,0.569
					c0.279,0.684,0.416,1.392,0.416,2.125c0,0.733-0.137,1.441-0.416,2.125c-0.632,0.379-1.557,0.57-2.772,0.57
					c-1.212,0-2.113-0.191-2.69-0.57C56.602,34.765,56.46,34.057,56.46,33.324z"/>
				<path fill="#FFFFFF" d="M73.48,58.221c-2.137,0-3.783-0.883-4.934-2.658c-1.15-1.77-1.727-4.191-1.727-7.268
					c0-3.072,0.728-5.496,2.183-7.267c1.457-1.771,3.257-2.659,5.406-2.659c1.139,0,2.341,0.292,3.608,0.875v-9.261l0.264-0.266
					h2.202c1.112,0,1.896,0.253,2.353,0.759c0.455,0.505,0.684,1.392,0.684,2.658v19.05c0,1.363,0.353,2.314,1.062,2.846
					c-0.1,0.506-0.32,1.047-0.663,1.613c-0.34,0.57-0.702,1.006-1.082,1.311c-1.772-0.076-3.086-0.787-3.948-2.127
					C77.422,57.424,75.62,58.221,73.48,58.221z M75.094,53.665c1.114,0,2.088-0.541,2.924-1.633v-8.461
					c-1.088-0.658-1.974-0.986-2.659-0.986c-1.821,0-2.734,1.963-2.734,5.883c0,1.746,0.231,3.047,0.686,3.906
					C73.767,53.237,74.361,53.665,75.094,53.665z"/>
				<path fill="#FFFFFF" d="M94.753,42.963v14.688c-0.758,0.152-1.684,0.229-2.77,0.229c-1.089,0-2.051-0.076-2.885-0.229V44.899
					c0-1.441-0.596-2.164-1.785-2.164h-0.532c-0.15-0.633-0.226-1.29-0.226-1.974c0-0.681,0.075-1.339,0.226-1.972
					c1.267-0.127,2.342-0.189,3.228-0.189h0.761c1.236,0,2.212,0.39,2.92,1.174C94.397,40.561,94.753,41.625,94.753,42.963z
					 M87.959,33.324c0-0.734,0.14-1.441,0.418-2.125c0.708-0.379,1.64-0.569,2.789-0.569c1.151,0,2.044,0.19,2.676,0.569
					c0.279,0.684,0.418,1.392,0.418,2.125c0,0.733-0.139,1.441-0.418,2.125c-0.632,0.379-1.555,0.57-2.771,0.57
					c-1.212,0-2.11-0.191-2.693-0.57C88.099,34.765,87.959,34.057,87.959,33.324z"/>
				<path fill="#FFFFFF" d="M97.866,56.323c0.021-0.605,0.192-1.291,0.511-2.049c0.316-0.76,0.675-1.34,1.083-1.744
					c1.972,1.035,3.729,1.557,5.274,1.557c0.758,0,1.347-0.137,1.766-0.402c0.414-0.266,0.624-0.613,0.624-1.043
					c0-0.809-0.604-1.426-1.819-1.859l-2.088-0.76c-3.188-1.162-4.783-3.047-4.783-5.656c0-1.896,0.657-3.401,1.974-4.515
					c1.316-1.113,3.075-1.667,5.277-1.667c1.086,0,2.288,0.15,3.604,0.454c1.314,0.305,2.417,0.671,3.3,1.103
					c0.024,0.681-0.12,1.43-0.437,2.236c-0.314,0.812-0.7,1.383-1.157,1.711c-2.075-0.938-3.821-1.406-5.236-1.406
					c-0.556,0-0.986,0.129-1.291,0.381c-0.303,0.252-0.454,0.584-0.454,0.986c0,0.631,0.531,1.152,1.593,1.557l2.316,0.832
					c3.363,1.242,5.048,3.254,5.048,6.037c0,1.871-0.697,3.363-2.088,4.479c-1.392,1.111-3.354,1.67-5.883,1.67
					C102.468,58.221,100.089,57.586,97.866,56.323z"/>
				<path fill="#FFFFFF" d="M125.721,46.989c0-0.127,0-0.244,0-0.344c0-1.416-0.146-2.48-0.438-3.188
					c-0.29-0.709-0.91-1.062-1.856-1.062c-0.949,0-1.619,0.461-2.015,1.385c-0.392,0.924-0.585,2.396-0.585,4.422
					c0,2.023,0.285,3.459,0.853,4.309c0.568,0.846,1.45,1.27,2.639,1.27s2.58-0.543,4.175-1.631
					c0.455,0.252,0.896,0.701,1.328,1.346c0.43,0.646,0.708,1.25,0.835,1.803c-0.862,0.887-1.95,1.594-3.264,2.127
					c-1.317,0.531-2.671,0.797-4.062,0.797c-2.656,0-4.701-0.9-6.131-2.697c-1.428-1.793-2.145-4.303-2.145-7.531
					c0-3.225,0.824-5.668,2.469-7.327c1.646-1.654,3.588-2.483,5.827-2.483c2.237,0,4.041,0.581,5.407,1.743
					c1.366,1.164,2.049,2.659,2.049,4.483c0,0.91-0.246,1.598-0.741,2.066c-0.493,0.469-1.187,0.701-2.086,0.701
					C127.082,47.176,126.328,47.116,125.721,46.989z"/>
				<path fill="#FFFFFF" d="M150.199,45.088v7.896c0,1.617,0.289,2.869,0.875,3.758c-0.986,0.809-2.097,1.213-3.323,1.213
					c-1.228,0-2.068-0.293-2.522-0.877c-0.455-0.576-0.683-1.463-0.683-2.65v-8.275c0-0.938-0.129-1.615-0.382-2.031
					c-0.25-0.418-0.707-0.625-1.366-0.625c-1.062,0-2.086,0.48-3.072,1.441v12.713c-0.786,0.152-1.689,0.229-2.715,0.229
					c-1.023,0-1.967-0.076-2.825-0.229V29.984l0.266-0.266h2.2c1.113,0,1.903,0.259,2.371,0.779
					c0.469,0.519,0.703,1.397,0.703,2.638v7.437c1.719-1.442,3.44-2.162,5.162-2.162c1.72,0,3.036,0.607,3.946,1.821
					C149.742,41.445,150.199,43.065,150.199,45.088z"/>
			</g>
		</g>
	</g>
	<g>
		<g opacity="0.7">
			<path fill="#42A6C8" d="M214.344,44.458l5.922-0.037c0.023,0,0.049,0,0.074,0c2.53,0,3.794,1.213,3.794,3.641v9.945
				c-3.138,1.064-6.525,1.594-10.17,1.594c-3.646,0-6.413-1.189-8.312-3.568c-1.897-2.377-2.844-5.639-2.844-9.789
				c0-2.229,0.333-4.234,1.004-6.017c0.67-1.785,1.575-3.232,2.717-4.345c2.273-2.227,5.056-3.339,8.346-3.339
				s6.349,0.91,9.186,2.731c-0.075,0.785-0.375,1.576-0.893,2.372c-0.519,0.796-1.095,1.397-1.728,1.803
				c-2.075-1.392-4.16-2.088-6.261-2.088c-4.301,0-6.45,2.943-6.45,8.825c0,5.883,2.149,8.824,6.45,8.824
				c1.087,0,2.25-0.115,3.49-0.344v-2.77c0-1.139,0.025-2.01,0.079-2.617h-2.09c-0.962,0-1.656-0.186-2.085-0.551
				c-0.434-0.365-0.647-0.99-0.647-1.879C213.926,45.961,214.063,45.165,214.344,44.458z"/>
			<path fill="#42A6C8" d="M243.15,51.405h-10.059c0.076,1.211,0.38,2.152,0.911,2.828c0.53,0.666,1.466,1.004,2.809,1.004
				c1.341,0,2.934-0.391,4.782-1.178c0.783,0.76,1.304,1.883,1.557,3.379c-2.052,1.441-4.531,2.162-7.44,2.162
				c-1.567,0-2.922-0.271-4.061-0.814c-1.139-0.547-2.01-1.299-2.619-2.262c-1.113-1.842-1.672-4.211-1.672-7.096
				c0-2.883,0.698-5.246,2.087-7.096c1.395-1.848,3.405-2.771,6.038-2.771c2.631,0,4.648,0.751,6.052,2.257
				c1.404,1.506,2.107,3.434,2.107,5.785C243.643,48.922,243.479,50.188,243.15,51.405z M237.76,44.553
				c-0.429-0.648-1.095-0.969-1.993-0.969s-1.557,0.316-1.975,0.949c-0.414,0.631-0.663,1.621-0.739,2.959h5.354v-0.457
				C238.407,46.026,238.188,45.198,237.76,44.553z"/>
			<path fill="#42A6C8" d="M246.262,42.75c0.101-0.508,0.328-1.051,0.682-1.634c0.354-0.581,0.709-1.009,1.062-1.29
				c2.252,0.228,3.796,1.366,4.631,3.414c0.961-2.25,2.554-3.377,4.782-3.377c0.836,0,1.656,0.103,2.469,0.306
				c0,0.733-0.128,1.613-0.382,2.634c-0.254,1.027-0.595,1.908-1.025,2.641c-0.529-0.18-1.164-0.291-1.896-0.344
				c-1.345,0-2.43,0.686-3.265,2.053v11.879c-0.758,0.15-1.683,0.229-2.769,0.229c-1.091,0-2.051-0.078-2.885-0.229V46.659
				C247.666,44.76,247.195,43.459,246.262,42.75z"/>
			<path fill="#42A6C8" d="M276.927,51.405h-10.061c0.077,1.211,0.382,2.152,0.913,2.828c0.531,0.666,1.465,1.004,2.807,1.004
				s2.938-0.391,4.786-1.178c0.781,0.76,1.301,1.883,1.555,3.379c-2.051,1.441-4.53,2.162-7.438,2.162
				c-1.57,0-2.925-0.271-4.061-0.814c-1.14-0.547-2.013-1.299-2.621-2.262c-1.109-1.842-1.67-4.211-1.67-7.096
				c0-2.883,0.697-5.246,2.088-7.096c1.391-1.848,3.403-2.771,6.034-2.771c2.632,0,4.65,0.751,6.053,2.257
				c1.405,1.506,2.109,3.434,2.109,5.785C277.421,48.922,277.254,50.188,276.927,51.405z M271.536,44.553
				c-0.431-0.648-1.096-0.969-1.995-0.969c-0.897,0-1.552,0.316-1.969,0.949c-0.416,0.631-0.667,1.621-0.743,2.959h5.353v-0.457
				C272.182,46.026,271.967,45.198,271.536,44.553z"/>
			<path fill="#42A6C8" d="M281.765,56.756c-1.152-1.775-1.728-4.189-1.728-7.252c0-3.061,0.729-5.484,2.181-7.268
				c1.455-1.784,3.213-2.675,5.276-2.675c2.062,0,3.778,0.594,5.143,1.784c0.859-0.938,2.01-1.442,3.454-1.519
				c0.38,0.281,0.744,0.709,1.1,1.29c0.356,0.583,0.571,1.115,0.647,1.595c-0.71,0.529-1.065,1.479-1.065,2.846v10.209
				c0,4.301-0.632,7.275-1.898,8.92c-1.439,1.822-3.78,2.73-7.019,2.73c-2.453,0-4.808-0.416-7.058-1.25
				c0-0.684,0.133-1.424,0.397-2.223c0.265-0.795,0.598-1.42,1.004-1.877c1.672,0.76,3.379,1.139,5.125,1.139
				c2.632,0,3.948-1.355,3.948-4.062v-1.289c-1.367,1.037-2.836,1.559-4.403,1.559C284.615,59.413,282.915,58.524,281.765,56.756z
				 M291.272,53.452v-8.311c-0.938-0.885-1.821-1.332-2.658-1.332c-1.848,0-2.771,1.953-2.771,5.848c0,1.748,0.22,3.053,0.665,3.908
				c0.442,0.861,1.03,1.291,1.766,1.291C289.358,54.856,290.362,54.389,291.272,53.452z"/>
			<path fill="#42A6C8" d="M316.092,51.405h-10.058c0.076,1.211,0.38,2.152,0.91,2.828c0.531,0.666,1.469,1.004,2.81,1.004
				c1.34,0,2.935-0.391,4.781-1.178c0.784,0.76,1.304,1.883,1.557,3.379c-2.05,1.441-4.528,2.162-7.438,2.162
				c-1.57,0-2.921-0.271-4.062-0.814c-1.139-0.547-2.013-1.299-2.616-2.262c-1.117-1.842-1.673-4.211-1.673-7.096
				c0-2.883,0.697-5.246,2.088-7.096c1.393-1.848,3.404-2.771,6.034-2.771c2.632,0,4.651,0.751,6.054,2.257
				c1.404,1.506,2.106,3.434,2.106,5.785C316.585,48.922,316.419,50.188,316.092,51.405z M310.701,44.553
				c-0.43-0.648-1.094-0.969-1.991-0.969c-0.896,0-1.558,0.316-1.974,0.949c-0.418,0.631-0.665,1.621-0.74,2.959h5.352v-0.457
				C311.348,46.026,311.133,45.198,310.701,44.553z"/>
			<path fill="#42A6C8" d="M327.401,54.893h1.101c0.304,0.809,0.454,1.59,0.454,2.336s-0.038,1.283-0.112,1.611
				c-1.521,0.252-2.974,0.381-4.366,0.381c-1.391,0-2.442-0.404-3.147-1.215c-0.707-0.809-1.064-2.1-1.064-3.873V31.365l0.267-0.267
				h2.202c1.112,0,1.9,0.261,2.37,0.779c0.468,0.518,0.702,1.396,0.702,2.638V53.11C325.807,54.301,326.338,54.893,327.401,54.893z"
				/>
			<path fill="#42A6C8" d="M337.439,59.6c-2.139,0-3.782-0.885-4.934-2.654c-1.152-1.771-1.729-4.199-1.729-7.271
				c0-3.07,0.729-5.492,2.184-7.266c1.453-1.772,3.259-2.659,5.41-2.659c1.138,0,2.34,0.293,3.603,0.874v-9.258l0.268-0.267h2.202
				c1.113,0,1.896,0.253,2.353,0.758c0.453,0.507,0.683,1.393,0.683,2.659v19.05c0,1.369,0.351,2.314,1.062,2.846
				c-0.1,0.508-0.323,1.047-0.665,1.615s-0.702,1.006-1.08,1.307c-1.771-0.072-3.088-0.781-3.948-2.123
				C341.38,58.803,339.577,59.6,337.439,59.6z M339.051,55.045c1.111,0,2.091-0.541,2.922-1.631v-8.463
				c-1.087-0.658-1.975-0.988-2.653-0.988c-1.825,0-2.734,1.961-2.734,5.883c0,1.746,0.228,3.049,0.684,3.91
				C337.724,54.614,338.315,55.045,339.051,55.045z"/>
		</g>
		<g>
			<g>
				<path fill="#FFFFFF" d="M213.344,43.458l5.922-0.037c0.023,0,0.049,0,0.074,0c2.53,0,3.794,1.213,3.794,3.641v9.945
					c-3.138,1.064-6.525,1.594-10.17,1.594c-3.646,0-6.413-1.189-8.312-3.568c-1.897-2.377-2.844-5.639-2.844-9.789
					c0-2.229,0.333-4.234,1.004-6.017c0.67-1.785,1.575-3.232,2.717-4.345c2.273-2.227,5.056-3.339,8.346-3.339
					s6.349,0.91,9.186,2.731c-0.075,0.785-0.375,1.576-0.893,2.372c-0.519,0.796-1.095,1.397-1.728,1.803
					c-2.075-1.392-4.16-2.088-6.261-2.088c-4.301,0-6.45,2.943-6.45,8.825c0,5.883,2.149,8.824,6.45,8.824
					c1.087,0,2.25-0.115,3.49-0.344v-2.77c0-1.139,0.025-2.01,0.079-2.617h-2.09c-0.962,0-1.656-0.186-2.085-0.551
					c-0.434-0.365-0.647-0.99-0.647-1.879C212.926,44.961,213.063,44.165,213.344,43.458z"/>
				<path fill="#FFFFFF" d="M242.15,50.405h-10.059c0.076,1.211,0.38,2.152,0.911,2.828c0.53,0.666,1.466,1.004,2.809,1.004
					c1.341,0,2.934-0.391,4.782-1.178c0.783,0.76,1.304,1.883,1.557,3.379c-2.052,1.441-4.531,2.162-7.44,2.162
					c-1.567,0-2.922-0.271-4.061-0.814c-1.139-0.547-2.01-1.299-2.619-2.262c-1.113-1.842-1.672-4.211-1.672-7.096
					c0-2.883,0.698-5.246,2.087-7.096c1.395-1.847,3.405-2.77,6.038-2.77c2.631,0,4.648,0.751,6.052,2.256
					c1.404,1.506,2.107,3.434,2.107,5.786C242.643,47.922,242.479,49.188,242.15,50.405z M236.76,43.553
					c-0.429-0.648-1.095-0.969-1.993-0.969s-1.557,0.316-1.975,0.949c-0.414,0.631-0.663,1.621-0.739,2.959h5.354v-0.457
					C237.407,45.026,237.188,44.198,236.76,43.553z"/>
				<path fill="#FFFFFF" d="M245.262,41.75c0.101-0.507,0.328-1.051,0.682-1.634c0.354-0.581,0.709-1.009,1.062-1.29
					c2.252,0.228,3.796,1.366,4.631,3.414c0.961-2.25,2.554-3.377,4.782-3.377c0.836,0,1.656,0.103,2.469,0.306
					c0,0.733-0.128,1.613-0.382,2.634c-0.254,1.027-0.595,1.908-1.025,2.641c-0.529-0.18-1.164-0.291-1.896-0.344
					c-1.345,0-2.43,0.686-3.265,2.053v11.879c-0.758,0.15-1.683,0.229-2.769,0.229c-1.091,0-2.051-0.078-2.885-0.229V45.659
					C246.666,43.76,246.195,42.459,245.262,41.75z"/>
				<path fill="#FFFFFF" d="M275.927,50.405h-10.061c0.077,1.211,0.382,2.152,0.913,2.828c0.531,0.666,1.465,1.004,2.807,1.004
					s2.938-0.391,4.786-1.178c0.781,0.76,1.301,1.883,1.555,3.379c-2.051,1.441-4.53,2.162-7.438,2.162
					c-1.57,0-2.925-0.271-4.061-0.814c-1.14-0.547-2.013-1.299-2.621-2.262c-1.109-1.842-1.67-4.211-1.67-7.096
					c0-2.883,0.697-5.246,2.088-7.096c1.391-1.847,3.403-2.77,6.034-2.77c2.632,0,4.65,0.751,6.053,2.256
					c1.405,1.506,2.109,3.434,2.109,5.786C276.421,47.922,276.254,49.188,275.927,50.405z M270.536,43.553
					c-0.431-0.648-1.096-0.969-1.995-0.969c-0.897,0-1.552,0.316-1.969,0.949c-0.416,0.631-0.667,1.621-0.743,2.959h5.353v-0.457
					C271.182,45.026,270.967,44.198,270.536,43.553z"/>
				<path fill="#FFFFFF" d="M280.765,55.756c-1.152-1.775-1.728-4.189-1.728-7.252c0-3.061,0.729-5.484,2.181-7.268
					c1.455-1.784,3.213-2.674,5.276-2.674c2.062,0,3.778,0.594,5.143,1.784c0.859-0.938,2.01-1.442,3.454-1.519
					c0.38,0.281,0.744,0.709,1.1,1.29c0.356,0.583,0.571,1.114,0.647,1.595c-0.71,0.529-1.065,1.479-1.065,2.846v10.209
					c0,4.301-0.632,7.275-1.898,8.92c-1.439,1.822-3.78,2.73-7.019,2.73c-2.453,0-4.808-0.416-7.058-1.25
					c0-0.684,0.133-1.424,0.397-2.223c0.265-0.795,0.598-1.42,1.004-1.877c1.672,0.76,3.379,1.139,5.125,1.139
					c2.632,0,3.948-1.355,3.948-4.062v-1.289c-1.367,1.037-2.836,1.559-4.403,1.559C283.615,58.413,281.915,57.524,280.765,55.756z
					 M290.272,52.452v-8.311c-0.938-0.885-1.821-1.332-2.658-1.332c-1.848,0-2.771,1.953-2.771,5.848
					c0,1.748,0.22,3.053,0.665,3.908c0.442,0.861,1.03,1.291,1.766,1.291C288.358,53.856,289.362,53.389,290.272,52.452z"/>
				<path fill="#FFFFFF" d="M315.092,50.405h-10.058c0.076,1.211,0.38,2.152,0.91,2.828c0.531,0.666,1.469,1.004,2.81,1.004
					c1.34,0,2.935-0.391,4.781-1.178c0.784,0.76,1.304,1.883,1.557,3.379c-2.05,1.441-4.528,2.162-7.438,2.162
					c-1.57,0-2.921-0.271-4.062-0.814c-1.139-0.547-2.013-1.299-2.616-2.262c-1.117-1.842-1.673-4.211-1.673-7.096
					c0-2.883,0.697-5.246,2.088-7.096c1.393-1.847,3.404-2.77,6.034-2.77c2.632,0,4.651,0.751,6.054,2.256
					c1.404,1.506,2.106,3.434,2.106,5.786C315.585,47.922,315.419,49.188,315.092,50.405z M309.701,43.553
					c-0.43-0.648-1.094-0.969-1.991-0.969c-0.896,0-1.558,0.316-1.974,0.949c-0.418,0.631-0.665,1.621-0.74,2.959h5.352v-0.457
					C310.348,45.026,310.133,44.198,309.701,43.553z"/>
				<path fill="#FFFFFF" d="M326.401,53.893h1.101c0.304,0.809,0.454,1.59,0.454,2.336s-0.038,1.283-0.112,1.611
					c-1.521,0.252-2.974,0.381-4.366,0.381c-1.391,0-2.442-0.404-3.147-1.215c-0.707-0.809-1.064-2.1-1.064-3.873V30.365
					l0.267-0.267h2.202c1.112,0,1.9,0.261,2.37,0.779c0.468,0.518,0.702,1.396,0.702,2.638V52.11
					C324.807,53.301,325.338,53.893,326.401,53.893z"/>
				<path fill="#FFFFFF" d="M336.439,58.6c-2.139,0-3.782-0.885-4.934-2.654c-1.152-1.771-1.729-4.199-1.729-7.271
					c0-3.07,0.729-5.492,2.184-7.265c1.453-1.772,3.259-2.66,5.41-2.66c1.138,0,2.34,0.293,3.603,0.874v-9.258l0.268-0.267h2.202
					c1.113,0,1.896,0.253,2.353,0.758c0.453,0.507,0.683,1.393,0.683,2.659v19.05c0,1.369,0.351,2.314,1.062,2.846
					c-0.1,0.508-0.323,1.047-0.665,1.615s-0.702,1.006-1.08,1.307c-1.771-0.072-3.088-0.781-3.948-2.123
					C340.38,57.803,338.577,58.6,336.439,58.6z M338.051,54.045c1.111,0,2.091-0.541,2.922-1.631v-8.463
					c-1.087-0.658-1.975-0.988-2.653-0.988c-1.825,0-2.734,1.961-2.734,5.883c0,1.746,0.228,3.049,0.684,3.91
					C336.724,53.614,337.315,54.045,338.051,54.045z"/>
			</g>
		</g>
	</g>
</g>
</svg>
