<?xml version="1.0" encoding="UTF-8" standalone="no"?>
<svg width="101px" height="419px" viewBox="0 0 101 419" version="1.1" xmlns="http://www.w3.org/2000/svg" xmlns:xlink="http://www.w3.org/1999/xlink" xmlns:sketch="http://www.bohemiancoding.com/sketch/ns">
    <title>logoJG</title>
    <description>Created with Sketch (http://www.bohemiancoding.com/sketch)</description>
    <defs></defs>
    <g id="Page-1" stroke="none" stroke-width="1" fill="none" fill-rule="evenodd" sketch:type="MSPage">
        <g id="Imported-Layers" sketch:type="MSLayerGroup" transform="translate(0.000000, 1.000000)" fill="#FFFFFF">
            <path d="M89.956,12.293 C90.105,17.865 76.523,19.533 71.971,20.106 C64.147,21.091 55.627,21.118 46.345,20.728 C37.334,20.348 26.985,18.617 26.985,18.617 C24.601,19.258 23.935,22.741 25.909,23.823 C31.822,25.391 39.516,26.438 48.128,26.8 C58.662,27.243 68.808,26.9 77.517,25.33 C99.727,21.325 103.118,10.706 91.16,5.135 C81.997,0.866 74.563,-0.237 60.806,-0.212 C44.581,-0.182 25.14,5.291 25.14,5.291 C17.243,7.36 14.708,8.677 8.382,11.388 L11.96,14.768 C23.907,9.222 31.598,8.226 38.509,7.019 C38.509,7.019 50.279,4.628 61.464,4.401 C61.464,4.401 89.717,3.471 89.956,12.293" id="Fill-1" sketch:type="MSShapeGroup"></path>
            <path d="M99.902,319.451 C99.902,319.451 96.286,258.893 84.085,192.912 C84.085,192.912 69.624,102.978 75.5,79.025 C75.5,79.025 88.891,49.628 97.164,25.9 C90.166,30.157 78.117,32.485 53.998,32.815 C52.245,32.839 50.539,32.889 48.898,32.851 C15.448,32.082 6.76,23.779 6.692,20.389 C6.669,19.06 7.325,18.048 8.32,17.23 C9.44,16.304 11.346,15.073 12.568,14.513 C24.657,8.977 36.803,7.169 38.215,7 C40.643,6.708 40.118,3.434 37.875,2.989 C37.875,2.989 4.111,7.652 1.391,18.485 C-1.33,29.317 17.935,71.23 25.335,79.723 C25.335,79.723 33.017,91.228 14.036,196.979 C14.036,196.979 -2.232,290.076 0.478,321.26 C0.478,321.26 1.904,356.962 17.913,379.559 C33.922,402.155 51.094,417.068 51.094,417.068 C51.094,417.068 76.854,391.309 84.085,379.559 C84.085,379.559 102.614,356.51 99.902,319.451 L99.902,319.451 Z M35.577,103.536 C35.997,101.43 37.769,100.13 39.533,100.63 C39.589,100.646 45.198,102.219 49.857,102.219 C54.488,102.219 59.353,100.67 59.402,100.655 C61.153,100.093 62.956,101.329 63.429,103.42 C63.901,105.512 62.864,107.664 61.112,108.228 C60.879,108.302 55.349,110.061 49.857,110.061 C44.414,110.061 38.271,108.333 38.012,108.259 C36.247,107.758 35.157,105.643 35.577,103.536 L35.577,103.536 Z M30.403,124.059 C30.8,121.948 32.554,120.622 34.324,121.09 C34.413,121.113 40.004,122.552 50.065,122.693 C59.863,122.823 64.39,121.197 64.435,121.181 C66.16,120.54 68.004,121.678 68.551,123.733 C69.098,125.788 68.163,127.981 66.445,128.647 C66.238,128.727 61.431,130.544 51.23,130.544 C50.825,130.544 50.411,130.541 49.987,130.535 C39.127,130.382 33.14,128.81 32.89,128.744 C31.12,128.27 30.006,126.172 30.403,124.059 L30.403,124.059 Z M51.224,151.925 C50.82,151.925 50.409,151.922 49.988,151.916 C39.127,151.762 33.14,150.191 32.89,150.124 C31.12,149.65 30.006,147.553 30.403,145.44 C30.8,143.329 32.553,141.998 34.323,142.471 C34.378,142.485 39.974,143.931 50.065,144.074 C59.857,144.203 64.39,142.578 64.435,142.561 C66.16,141.922 68.004,143.06 68.551,145.114 C69.098,147.169 68.163,149.361 66.445,150.027 C66.237,150.108 61.428,151.925 51.224,151.925 L51.224,151.925 Z M63.04,170.838 C62.616,171.051 58.802,172.85 50.842,172.85 C50.517,172.85 50.186,172.847 49.848,172.841 C41.309,172.685 36.533,171.059 36.334,170.99 C34.591,170.385 33.59,168.209 34.097,166.13 C34.603,164.054 36.42,162.859 38.16,163.456 C38.234,163.481 42.421,164.862 49.949,164.999 C57.157,165.131 60.491,163.609 60.523,163.594 C62.195,162.753 64.104,163.697 64.809,165.693 C65.514,167.688 64.711,169.997 63.04,170.838 L63.04,170.838 Z M24.515,210.194 C24.846,208.061 26.646,206.636 28.54,207.008 C28.722,207.043 36.431,208.502 50.238,208.645 C63.9,208.782 70.189,207.084 70.25,207.066 C72.108,206.547 73.998,207.824 74.462,209.92 C74.927,212.017 73.806,214.14 71.949,214.671 C71.678,214.749 65.403,216.496 51.863,216.496 C51.311,216.496 50.75,216.493 50.174,216.487 C35.628,216.336 27.673,214.798 27.341,214.733 C25.45,214.359 24.185,212.328 24.515,210.194 L24.515,210.194 Z M20.096,231.137 C20.485,229.004 22.601,227.58 24.829,227.95 C24.918,227.965 34.002,229.444 50.363,229.588 C66.623,229.734 73.827,228.029 73.898,228.012 C76.087,227.479 78.314,228.75 78.87,230.849 C79.425,232.948 78.1,235.081 75.909,235.614 C75.591,235.691 68.205,237.44 52.267,237.44 C51.621,237.44 50.962,237.437 50.288,237.43 C33.172,237.28 23.811,235.741 23.421,235.675 C21.195,235.302 19.706,233.27 20.096,231.137 L20.096,231.137 Z M63.959,256.119 C63.669,256.194 56.781,257.953 49.94,257.953 C43.162,257.953 35.51,256.225 35.188,256.151 C32.99,255.649 31.632,253.535 32.155,251.428 C32.678,249.322 34.885,248.02 37.083,248.522 C37.226,248.554 44.169,250.11 49.94,250.11 C55.709,250.11 61.769,248.563 61.829,248.547 C64.008,247.984 66.257,249.222 66.845,251.313 C67.433,253.404 66.141,255.556 63.959,256.119 L63.959,256.119 Z M74.81,363.888 C74.505,363.965 67.427,365.713 52.152,365.713 C51.534,365.713 50.903,365.71 50.258,365.704 C33.856,365.553 24.886,364.015 24.512,363.949 C22.379,363.576 20.952,361.544 21.325,359.411 C21.698,357.278 23.731,355.849 25.863,356.225 C26.069,356.26 34.762,357.718 50.331,357.862 C65.726,357.997 72.826,356.3 72.897,356.283 C74.994,355.764 77.121,357.042 77.646,359.138 C78.169,361.233 76.905,363.357 74.81,363.888 L74.81,363.888 Z M83.873,340.975 C83.487,341.1 74.145,344.052 50.203,344.052 C26.343,344.052 15.754,341.144 15.315,341.02 C13.23,340.432 12.018,338.266 12.605,336.182 C13.192,334.101 15.353,332.89 17.433,333.469 C17.532,333.497 27.625,336.21 50.203,336.21 C72.61,336.21 81.38,333.538 81.466,333.511 C83.526,332.866 85.727,334 86.385,336.055 C87.042,338.11 85.925,340.307 83.873,340.975 L83.873,340.975 Z M12.599,313.954 C13.173,311.869 15.326,310.643 17.413,311.214 C17.556,311.252 27.872,313.96 50.318,313.96 C72.614,313.96 81.38,311.289 81.465,311.262 C83.523,310.615 85.727,311.75 86.385,313.805 C87.042,315.86 85.925,318.058 83.873,318.725 C83.487,318.851 74.146,321.802 50.318,321.802 C26.582,321.802 15.784,318.9 15.336,318.777 C13.249,318.201 12.023,316.042 12.599,313.954 L12.599,313.954 Z M83.815,296.49 C83.431,296.608 74.125,299.396 50.17,299.55 C49.583,299.554 49.003,299.555 48.433,299.555 C25.697,299.555 15.676,296.626 15.251,296.499 C13.177,295.876 12,293.689 12.623,291.615 C13.245,289.544 15.424,288.367 17.496,288.984 C17.698,289.043 27.671,291.858 50.119,291.707 C72.642,291.563 81.435,289.016 81.521,288.99 C83.589,288.372 85.776,289.541 86.402,291.607 C87.029,293.672 85.877,295.854 83.815,296.49 L83.815,296.49 Z" id="Fill-2" sketch:type="MSShapeGroup"></path>
        </g>
    </g>
</svg>