<?xml version="1.0" encoding="utf-8"?>
<!-- Generator: Adobe Illustrator 16.0.0, SVG Export Plug-In . SVG Version: 6.00 Build 0)  -->
<!DOCTYPE svg PUBLIC "-//W3C//DTD SVG 1.1//EN" "http://www.w3.org/Graphics/SVG/1.1/DTD/svg11.dtd">
<svg version="1.1" id="Layer_1" xmlns:sketch="http://www.bohemiancoding.com/sketch/ns"
	 xmlns="http://www.w3.org/2000/svg" xmlns:xlink="http://www.w3.org/1999/xlink" x="0px" y="0px" width="222px" height="180px"
	 viewBox="0 0 222 180" enable-background="new 0 0 222 180" xml:space="preserve">
<title>mail</title>
<description>Created with Sketch (http://www.bohemiancoding.com/sketch)</description>
<g id="Path-copy-_x2B_-mail" transform="translate(1.000000, 1.000000)" sketch:type="MSLayerGroup">
	<g id="XMLID_1_">
		<path fill="#FFFFFF" d="M193.76,0.85c1.71-0.24,3.351,0.27,4.601,1.28c0.64,0.81,1.08,1.8,1.229,2.9l19.5,139.041
			c0.46,3.319-1.84,6.39-5.14,6.859L26.04,177.39c-1.7,0.24-3.33-0.25-4.58-1.25c-0.65-0.81-1.09-1.81-1.25-2.92l-1.99-14.239h16.25
			l1.19,6.069l171.56-26.29L189.06,15.37l-8.109,1.15L178.81,2.96L193.76,0.85z"/>
		<path fill="#FFFFFF" d="M125.72,10.44L9.21,28.89l2.54,15.98l0.31-0.05l7.72,39.32H17.5v69.7L0.72,34.18
			c-0.47-3.33,1.83-6.4,5.13-6.86L125.72,10.44z"/>
		<path fill="#D89408" d="M26.04,177.39l187.91-26.46c3.3-0.47,5.6-3.54,5.14-6.859L199.59,5.03c-0.149-1.1-0.59-2.09-1.229-2.9
			c1.17,0.92,2,2.29,2.229,3.9l19.5,139.041c0.46,3.319-1.84,6.39-5.14,6.859L27.04,178.39c-2.2,0.311-4.29-0.609-5.58-2.25
			C22.71,177.14,24.34,177.63,26.04,177.39z"/>
		<path fill="#FFFFFF" d="M19.78,84.14l-7.72-39.32l-0.31,0.05L9.21,28.89l116.51-18.45L5.85,27.32c-3.3,0.46-5.6,3.53-5.13,6.86
			L17.5,153.84v-69.7H19.78z M16.18,49.18l14.46,103.08l43.31-58.89L16.18,49.18z M178.16,16.16L24.52,37.81l80.23,61.36
			c1.74,1.33,4.17,1.9,6.69,1.55c2.52-0.35,4.75-1.569,6.02-3.26L178.16,16.16z M4.85,26.32L192.76-0.15
			c2.21-0.31,4.32,0.63,5.601,2.28c-1.25-1.01-2.891-1.52-4.601-1.28l-14.95,2.11l2.141,13.56l8.109-1.15l18.16,123.39L35.66,165.05
			l-1.19-6.069H18.22l1.99,14.239c0.16,1.11,0.6,2.11,1.25,2.92c-1.18-0.93-2.02-2.3-2.25-3.92L-0.28,33.18
			C-0.75,29.85,1.55,26.78,4.85,26.32z M194.32,139.44L136.89,95l-8.159,10.93c-3.54,4.7-9.101,7.891-15.29,8.761
			c-6.331,0.859-12.57-0.721-17.25-4.32l-11.04-8.45l-43.4,59.01L194.32,139.44z M188.32,26.11l-43,57.59l57.3,44.33L188.32,26.11z"
			/>
	</g>
</g>
</svg>
