<?xml version="1.0" encoding="utf-8"?>
<!-- Generator: Adobe Illustrator 16.0.0, SVG Export Plug-In . SVG Version: 6.00 Build 0)  -->
<!DOCTYPE svg PUBLIC "-//W3C//DTD SVG 1.1//EN" "http://www.w3.org/Graphics/SVG/1.1/DTD/svg11.dtd">
<svg version="1.1" xmlns="http://www.w3.org/2000/svg" xmlns:xlink="http://www.w3.org/1999/xlink" x="0px" y="0px" width="222px"
	 height="180px" viewBox="0 0 222 180" enable-background="new 0 0 222 180" xml:space="preserve">
<g id="schduw">
	<path fill="#D89408" d="M27.04,178.39l187.91-26.46c3.3-0.47,5.6-3.54,5.14-6.859L200.59,6.03c-0.149-1.1-0.59-2.09-1.229-2.9
		c1.17,0.92,2,2.29,2.229,3.9l19.5,139.041c0.46,3.319-1.84,6.39-5.14,6.859L28.04,179.39c-2.2,0.311-4.29-0.609-5.58-2.25
		C23.71,178.14,25.34,178.63,27.04,178.39z"/>
</g>
<g id="Layer_1" xmlns:sketch="http://www.bohemiancoding.com/sketch/ns">
	<title>mail</title>
	<description>Created with Sketch (http://www.bohemiancoding.com/sketch)</description>
	<path fill="#FFFFFF" d="M6.85,28.32l119.87-16.88L10.21,29.89l2.54,15.98l0.31-0.05l7.72,39.32H18.5v69.7L1.72,35.18
		C1.25,31.85,3.55,28.78,6.85,28.32z"/>
	<path fill="#FFFFFF" d="M220.09,145.07L200.59,6.03c-0.149-1.1-0.59-2.09-1.229-2.9c-1.28-1.65-3.391-2.59-5.601-2.28L5.85,27.32
		c-3.3,0.46-5.6,3.53-5.13,6.86l19.49,139.04c0.23,1.62,1.07,2.99,2.25,3.92c1.25,1,2.88,1.49,4.58,1.25l187.91-26.46
		C218.25,151.46,220.55,148.39,220.09,145.07z M42.75,161.93l43.4-59.01l11.04,8.45c4.68,3.6,10.92,5.18,17.25,4.32
		c6.189-0.87,11.75-4.061,15.29-8.761L137.89,96l57.431,44.44L42.75,161.93z M146.32,84.7l43-57.59l14.3,101.92L146.32,84.7z
		 M179.16,17.16l-60.7,81.3c-1.27,1.69-3.5,2.91-6.02,3.26c-2.521,0.351-4.95-0.22-6.69-1.55L25.52,38.81L179.16,17.16z
		 M74.95,94.37l-43.31,58.89L17.18,50.18L74.95,94.37z"/>
</g>
</svg>
