<?xml version="1.0" encoding="utf-8"?>
<!-- Generator: Adobe Illustrator 16.0.0, SVG Export Plug-In . SVG Version: 6.00 Build 0)  -->
<!DOCTYPE svg PUBLIC "-//W3C//DTD SVG 1.1//EN" "http://www.w3.org/Graphics/SVG/1.1/DTD/svg11.dtd">
<svg version="1.1" id="Layer_1" xmlns:sketch="http://www.bohemiancoding.com/sketch/ns"
	 xmlns="http://www.w3.org/2000/svg" xmlns:xlink="http://www.w3.org/1999/xlink" x="0px" y="0px" width="41px" height="155px"
	 viewBox="0 0 41 155" enable-background="new 0 0 41 155" xml:space="preserve">
<title>pen</title>
<description>Created with Sketch (http://www.bohemiancoding.com/sketch)</description>
<g id="pen" transform="translate(523.000000, 239.000000) rotate(28.000000) translate(-523.000000, -239.000000) translate(495.000000, 165.000000)" sketch:type="MSShapeGroup">
	<g id="XMLID_1_">
		<g>
			<path fill="#43A6C9" d="M-468.378,242.771c-1.853-4.656-3.222-9.489-5.017-14.163c-0.427-0.951-0.404-2.016-0.16-2.984
				c-0.246-0.164-0.446-0.307-0.682-0.452c-0.081,0.359-0.129,0.737-0.21,1.096c-0.323-0.246-0.653-0.525-1.075-0.617
				c0.082,0.773,0.732,1.208,1.175,1.742c0.403,0.715,0.612,1.555,0.873,2.345c1.453,4.437,3.189,8.746,4.474,13.25
				c-0.482-0.502-0.665-1.187-1.041-1.746c-0.938-1.38-1.795-2.885-3.101-3.98c-2.389-2.512-4.517-5.3-7.125-7.628
				c-1.15-0.928-1.187-2.551-1.547-3.889c-0.71-2.975-1.43-5.99-2.095-8.989c-0.475-2.149-0.879-4.357-2.023-6.274
				c-1.782-4.354-2.983-8.913-4.779-13.248c-1.703-4.055-2.83-8.304-4.47-12.347c-1.751-4.189-3.002-8.586-4.585-12.841
				c-0.397-1.385-1.56-2.273-2.366-3.407c-1.105-1.247-1.359-2.981-1.889-4.511l-16.838-49.091
				c-1.035-2.564-1.712-5.285-2.423-7.965c-0.213-1.529-0.565-3.086-0.371-4.616c0.085-1.801,0.446-3.635,1.316-5.174
				c1.179-1.295,2.798-2.405,4.626-2.29c1.103,0.093,2.152,0.362,3.178,0.779c1.134,0.62,1.488,2.267,2.606,2.941
				c0.904,0.38,1.986-0.716,2.914-0.824c1.072-0.264,1.756-0.107,2.466,0.229c0.764,0.478,1.545,1.138,2.062,1.962
				c0.69,1.083,0.812,2.422,1.25,3.628c3.721,10.853,8.445,23.7,11.887,34.645c1.103,3.525,1.871,7.035,1.679,10.444l-0.2,0.219
				c-2.559-3.747-3.697-7.208-4.616-9.618c-1.719-4.489-3.193-9.073-4.796-13.601c-1.01-3.155-2.209-6.221-3.219-9.376
				c-1.064-3.024-2.019-6.118-3.131-9.128c-0.164-0.626-0.941-0.938-1.458-1.23c0.408,1.3,0.806,2.731,1.376,4.014
				c3.45,10.046,7.019,20.018,10.447,30.065c0.367,1.605,2.595,7.352,3.06,8.928c1.159,3.076,2.089,6.229,3.199,9.319
				c0.348,1.378,1.081,2.608,1.366,3.974c0.192,1.235-0.118,2.441-0.088,3.671c0.274,1.622,1.085,3.082,1.442,4.671
				c1.005,3.679,2.339,7.273,3.566,10.902c0.783,2.132,1.303,4.324,1.992,6.495c1.239,3.928,2.766,7.759,3.841,11.718
				c0.673,2.417,1.56,4.766,2.361,7.104c0.345,1.096,0.312,2.269,0.732,3.337c1.927,4.412,3.955,8.758,5.93,13.133
				c0.589,3.152-0.623,6.198-0.666,9.335c0.097,2.248-0.519,4.456-0.342,6.705C-468.921,240.579-468.34,241.651-468.378,242.771z"/>
		</g>
		<g>
		</g>
	</g>
</g>
</svg>
