<?xml version="1.0" encoding="UTF-8" standalone="no"?>
<svg width="41px" height="155px" viewBox="0 0 41 155" version="1.1" xmlns="http://www.w3.org/2000/svg" xmlns:xlink="http://www.w3.org/1999/xlink" xmlns:sketch="http://www.bohemiancoding.com/sketch/ns">
    <title>pen</title>
    <description>Created with Sketch (http://www.bohemiancoding.com/sketch)</description>
    <defs></defs>
    <g id="Page-1" stroke="none" stroke-width="1" fill="none" fill-rule="evenodd" sketch:type="MSPage">
        <g id="website" sketch:type="MSArtboardGroup" transform="translate(-629.000000, -402.000000)" fill="#43A6C9">
            <g id="header-visuals" sketch:type="MSLayerGroup" transform="translate(122.000000, 240.000000)">
                <g id="pen" transform="translate(523.000000, 239.000000) rotate(28.000000) translate(-523.000000, -239.000000) translate(495.000000, 165.000000)" sketch:type="MSShapeGroup">
                    <path d="M34.0402074,53.8160979 C34.2313531,50.407842 33.4684739,46.8945004 32.3602525,43.3648491 C28.9207341,32.4173675 24.1977037,19.5762667 20.4732941,8.72200695 C20.0349212,7.52059646 19.9112649,6.18435794 19.2288015,5.09511094 C18.7062137,4.26710595 17.9220922,3.61467602 17.1607883,3.13347095 C16.4487,2.80045803 15.7658037,2.63820631 14.6956913,2.90884427 C13.7693114,3.0080937 12.6886642,4.1048821 11.7822009,3.72426279 C10.6680134,3.05720051 10.3064474,1.40843163 9.17240302,0.788225722 C8.1470183,0.370445888 7.09514222,0.0991945051 6.00048522,0.00792288078 C4.17318972,-0.104949506 2.55784639,1.00443944 1.37002674,2.29824008 C0.499450985,3.84064131 0.143808039,5.67462659 0.0587870951,7.46901029 C-0.140421209,9.00201562 0.213316655,10.5613265 0.425695734,12.0894906 C1.13893225,14.7679133 1.81251498,17.4878603 2.8484695,20.0547741 L19.6931281,69.1461252 C20.2180234,70.6758576 20.4747839,72.4095298 21.5771629,73.6562557 C22.3796146,74.7857724 23.5427311,75.6811163 23.938323,77.0625066 C25.5279448,81.3144088 26.7765653,85.7102211 28.5273493,89.9081758 C30.1736545,93.9492106 31.2949653,98.1977309 32.9945401,102.246443 C34.7963934,106.588472 35.9947649,111.142499 37.7737875,115.494155 C38.9243889,117.414571 39.319808,119.623748 39.8006824,121.777314 C40.4645569,124.773627 41.1862217,127.781271 41.8978915,130.764547 C42.2539763,132.102203 42.2908972,133.718817 43.4377241,134.647612 C46.0501221,136.972389 48.1776064,139.769029 50.5685981,142.2816 C51.8766274,143.375538 52.7274079,144.874396 53.6704717,146.261378 C54.0437992,146.820995 54.2259124,147.504067 54.7080594,148 C53.4233057,143.503643 51.6861774,139.193156 50.239868,134.754361 C49.9688854,133.964621 49.7589272,133.124233 49.358288,132.408856 C48.9143345,131.871903 48.2700984,131.431977 48.1868096,130.660851 C48.6106326,130.763073 48.9378716,131.036043 49.2565758,131.284139 C49.3406773,130.924684 49.3923464,130.546874 49.476448,130.187419 C49.7062828,130.328847 49.9127534,130.478348 50.1525833,130.644146 C49.9139342,131.609979 49.8865899,132.667997 50.3187749,133.62288 C52.1062258,138.303758 53.4769685,143.126883 55.3330517,147.784046 C55.3652302,146.668712 54.7903729,145.597929 54.8379141,144.451202 C54.659314,142.193191 55.277684,139.991937 55.1787783,137.73769 C55.2167767,134.606672 56.4289864,131.565522 55.8377982,128.40498 C53.8705484,124.033155 51.83666,119.686095 49.9081372,115.274805 C49.4876143,114.20634 49.5260872,113.033185 49.1791108,111.941047 C48.3746981,109.596701 47.4901976,107.252205 46.8165084,104.836607 C45.7432797,100.875784 44.2205169,97.0424662 42.9761308,93.1112219 C42.2847318,90.9486694 41.7659506,88.7560339 40.9825551,86.6252689 C39.7614266,82.9902999 38.4269311,79.3962415 37.4222283,75.7160525 C37.0588887,74.1287588 36.2480086,72.6700201 35.9777324,71.0540479 C35.945866,69.8234681 36.2540341,68.6127708 36.0649127,67.3808818 C35.778387,66.0174513 35.0423272,64.7815259 34.7019985,63.4088632 C33.5869495,60.3163017 32.662268,57.1597013 31.5024843,54.0843359 C31.0376864,52.5060152 28.8078086,46.7642413 28.4379278,45.1531239 C25.0163998,35.1054047 21.4407842,25.1370114 17.9953586,15.0958106 C17.4219213,13.805433 17.0295899,12.381182 16.6159081,11.0755993 C17.1293806,11.3676879 17.9101013,11.6769862 18.0751447,12.310311 C19.186493,15.3206829 20.1437537,18.4103807 21.2069133,21.4374033 C22.2131428,24.5936492 23.4187281,27.6549276 24.4234974,30.811678 C26.0293022,35.3344772 27.5023899,39.9274791 29.2202415,44.4150404 C30.1422821,46.8213388 31.2806955,50.2866513 33.8411517,54.0309472" id="Fill-1"></path>
                </g>
            </g>
        </g>
    </g>
</svg>