<?xml version="1.0" encoding="utf-8"?>
<!-- Generator: Adobe Illustrator 16.0.0, SVG Export Plug-In . SVG Version: 6.00 Build 0)  -->
<!DOCTYPE svg PUBLIC "-//W3C//DTD SVG 1.1//EN" "http://www.w3.org/Graphics/SVG/1.1/DTD/svg11.dtd">
<svg version="1.1" xmlns="http://www.w3.org/2000/svg" xmlns:xlink="http://www.w3.org/1999/xlink" x="0px" y="0px" width="236px"
	 height="290px" viewBox="0 0 236 290" enable-background="new 0 0 236 290" xml:space="preserve">
<g id="Layer_2">
</g>
<g id="Layer_1" xmlns:sketch="http://www.bohemiancoding.com/sketch/ns">
	<path fill="#FFFFFF" d="M226.04,3.99V1c2.12,0,4.11,0.75,5.75,2.03c-1.36-1.84-3.5-3.03-5.9-3.03H7.49C3.35,0,0,3.52,0,7.85V279.3
		c0,2.55,1.16,4.811,2.96,6.25C1.73,283.74,1,281.5,1,279.04h2.98c-0.03,4.53,3.26,8,6.97,7.97h215.09
		c3.72,0.03,7.01-3.439,6.97-7.97V11.96C233.05,7.42,229.76,3.96,226.04,3.99z M20.07,140.92h6.42h95.88c6.3,0,6.3,9.82,0,9.82
		h-6.42H20.07C13.77,150.74,13.77,140.92,20.07,140.92z M20.07,98.24h6.42h95.88c6.3,0,6.3,9.82,0,9.82h-6.42H20.07
		C13.77,108.06,13.77,98.24,20.07,98.24z M206.79,233.63h-2.6H103.68H20.07c-3.15,0-3.15-4.899,0-4.899h2.6h100.51h83.61
		C209.94,228.73,209.94,233.63,206.79,233.63z M39.63,207.39h79.561c3.149,0,3.149,4.91,0,4.91H39.63
		C36.48,212.3,36.48,207.39,39.63,207.39z M39.63,186.05h79.561c3.149,0,3.149,4.91,0,4.91H39.63
		C36.48,190.96,36.48,186.05,39.63,186.05z M206.79,169.62h-2.6H103.68H20.07c-3.15,0-3.15-4.91,0-4.91h2.6h100.51h83.61
		C209.94,164.71,209.94,169.62,206.79,169.62z M206.79,126.95h-2.6H103.68H20.07c-3.15,0-3.15-4.91,0-4.91h2.6h100.51h83.61
		C209.94,122.04,209.94,126.95,206.79,126.95z M201.05,51.28h-0.069H111.5H25.21c-12.62,0-12.62-19.64,0-19.64h0.08h89.47h86.29
		C213.67,31.64,213.67,51.28,201.05,51.28z"/>
	<path opacity="0.7" fill="#933098" d="M7.49,287.15H225.89c4.141,0,7.49-3.521,7.49-7.851V7.85c0-1.82-0.59-3.49-1.59-4.82
		C234.31,5,236,8.24,236,11.96v267.08c0,6.14-4.58,10.96-9.96,10.96H10.95c-3.23,0-6.16-1.73-7.99-4.45
		C4.22,286.55,5.79,287.15,7.49,287.15z"/>
	<path fill="#FFFFFF" d="M10.95,287.01h215.09c3.72,0.03,7.01-3.439,6.97-7.97V11.96c0.04-4.54-3.25-8-6.97-7.97V1
		c2.12,0,4.11,0.75,5.75,2.03c1,1.33,1.59,3,1.59,4.82V279.3c0,4.33-3.35,7.851-7.49,7.851H7.49c-1.7,0-3.27-0.601-4.53-1.601
		C1.73,283.74,1,281.5,1,279.04h2.98C3.95,283.57,7.24,287.04,10.95,287.01z"/>
</g>
</svg>
