<?xml version="1.0" encoding="UTF-8" standalone="no"?>
<svg width="236px" height="290px" viewBox="0 0 236 290" version="1.1" xmlns="http://www.w3.org/2000/svg" xmlns:xlink="http://www.w3.org/1999/xlink" xmlns:sketch="http://www.bohemiancoding.com/sketch/ns">
    <title>terms</title>
    <description>Created with Sketch (http://www.bohemiancoding.com/sketch)</description>
    <defs></defs>
    <g id="Page-1" stroke="none" stroke-width="1" fill="none" fill-rule="evenodd" sketch:type="MSPage">
        <g id="website" sketch:type="MSArtboardGroup" transform="translate(-835.000000, -2142.000000)">
            <g id="Path-copy-2-+-Imported-Layers" sketch:type="MSLayerGroup" transform="translate(835.000000, 2142.000000)">
                <path d="M226.042194,0.996563574 C231.421224,0.996563574 236,5.82039861 236,11.9587629 L236,279.037801 C236,285.176165 231.421224,290 226.042194,290 L10.9535865,290 C5.57469727,290 0.995780591,285.176307 0.995780591,279.037801 L3.98312236,279.037801 C3.94578192,283.573456 7.23705679,287.040816 10.9535865,287.010309 L226.042194,287.010309 C229.758724,287.040816 233.049999,283.573456 233.012658,279.037801 L233.012658,11.9587629 C233.049999,7.42310719 229.758724,3.95574797 226.042194,3.9862543 L226.042194,0.996563574 Z" id="Path-copy-2" fill-opacity="0.7" fill="#933098" sketch:type="MSShapeGroup"></path>
                <path d="M225.891084,0 L7.48828592,0 C3.35268168,0 0,3.51716461 0,7.85519734 L0,279.296124 C0,283.634156 3.35268168,287.151321 7.48828592,287.151321 L225.891084,287.151321 C230.026036,287.151321 233.378718,283.634156 233.378718,279.296124 L233.378718,7.85519734 C233.378718,3.51716461 230.026036,0 225.891084,0 L225.891084,0 Z M119.188714,190.959847 L39.6298318,190.959847 C36.4766291,190.959847 36.4766291,186.050349 39.6298318,186.050349 L119.188714,186.050349 C122.341916,186.050349 122.341916,190.959847 119.188714,190.959847 L119.188714,190.959847 Z M119.188714,212.297182 L39.6298318,212.297182 C36.4766291,212.297182 36.4766291,207.387683 39.6298318,207.387683 L119.188714,207.387683 C122.341916,207.387683 122.341916,212.297182 119.188714,212.297182 L119.188714,212.297182 Z M103.675635,169.621858 L20.0730652,169.621858 C16.9198625,169.621858 16.9198625,164.71236 20.0730652,164.71236 L22.6728114,164.71236 L123.184161,164.71236 L206.786731,164.71236 C209.939933,164.71236 209.939933,169.621858 206.786731,169.621858 L204.186985,169.621858 L103.675635,169.621858 L103.675635,169.621858 Z M206.787383,126.946535 L204.187636,126.946535 L103.676287,126.946535 L20.0730652,126.946535 C16.9198625,126.946535 16.9198625,122.037037 20.0730652,122.037037 L22.6728114,122.037037 L123.184161,122.037037 L206.787383,122.037037 C209.940585,122.037037 209.940585,126.946535 206.787383,126.946535 L206.787383,126.946535 Z M122.36734,108.063295 L115.952721,108.063295 L20.0730652,108.063295 C13.7673118,108.063295 13.7673118,98.2442986 20.0730652,98.2442986 L26.4876846,98.2442986 L122.36734,98.2442986 C128.673094,98.2442986 128.673094,108.063295 122.36734,108.063295 L122.36734,108.063295 Z M20.0730652,140.919622 L26.4876846,140.919622 L122.36734,140.919622 C128.673094,140.919622 128.673094,150.738619 122.36734,150.738619 L115.952721,150.738619 L20.0730652,150.738619 C13.7673118,150.738619 13.7673118,140.919622 20.0730652,140.919622 L20.0730652,140.919622 Z M206.788034,233.635171 L204.188288,233.635171 L103.676287,233.635171 L20.0730652,233.635171 C16.9198625,233.635171 16.9198625,228.725672 20.0730652,228.725672 L22.6728114,228.725672 L123.184813,228.725672 L206.788034,228.725672 C209.941237,228.725672 209.941237,233.635171 206.788034,233.635171 L206.788034,233.635171 Z M201.055294,51.2767645 L200.975763,51.2767645 L111.502905,51.2767645 L25.2060645,51.2767645 C12.5945577,51.2767645 12.5945577,31.6387711 25.2060645,31.6387711 L25.2855954,31.6387711 L114.758454,31.6387711 L201.055294,31.6387711 C213.666801,31.6387711 213.666801,51.2767645 201.055294,51.2767645 L201.055294,51.2767645 Z" id="Imported-Layers" fill="#FFFFFF" sketch:type="MSShapeGroup"></path>
            </g>
        </g>
    </g>
</svg>